<?xml version="1.0" encoding="us-ascii" standalone="no"?><svg xmlns="http://www.w3.org/2000/svg" xmlns:xlink="http://www.w3.org/1999/xlink" contentStyleType="text/css" height="901px" preserveAspectRatio="none" style="width:823px;height:901px;background:#FFFFFF;" version="1.1" viewBox="0 0 823 901" width="823px" zoomAndPan="magnify"><defs/><g><!--cluster pPc--><g id="cluster_pPc"><rect fill="none" height="420" rx="2.5" ry="2.5" style="stroke:#181818;stroke-width:1.0;" width="810" x="7" y="7"/><rect fill="none" height="10" style="stroke:#181818;stroke-width:1.0;" width="15" x="797" y="12"/><rect fill="none" height="2" style="stroke:#181818;stroke-width:1.0;" width="4" x="795" y="14"/><rect fill="none" height="2" style="stroke:#181818;stroke-width:1.0;" width="4" x="795" y="18"/><text fill="#000000" font-family="sans-serif" font-size="14" font-weight="bold" lengthAdjust="spacing" textLength="21" x="401.5" y="32.9951">PC</text></g><!--cluster pTools--><g id="cluster_pTools"><rect fill="none" height="97" rx="2.5" ry="2.5" style="stroke:#181818;stroke-width:1.0;" width="762" x="31" y="50"/><text fill="#000000" font-family="sans-serif" font-size="14" font-weight="bold" lengthAdjust="spacing" textLength="85" x="369.5" y="64.9951">Your Tools</text></g><!--cluster pNuc--><g id="cluster_pNuc"><rect fill="none" height="389" rx="2.5" ry="2.5" style="stroke:#181818;stroke-width:1.0;" width="523" x="153" y="476"/><rect fill="none" height="10" style="stroke:#181818;stroke-width:1.0;" width="15" x="656" y="481"/><rect fill="none" height="2" style="stroke:#181818;stroke-width:1.0;" width="4" x="654" y="483"/><rect fill="none" height="2" style="stroke:#181818;stroke-width:1.0;" width="4" x="654" y="487"/><text fill="#000000" font-family="sans-serif" font-size="14" font-weight="bold" lengthAdjust="spacing" textLength="63" x="383" y="501.9951">NUCLEO</text></g><!--cluster STM32--><g id="cluster_STM32"><rect fill="none" height="221" rx="2.5" ry="2.5" style="stroke:#181818;stroke-width:1.0;" width="475" x="177" y="620"/><rect fill="none" height="10" style="stroke:#181818;stroke-width:1.0;" width="15" x="632" y="625"/><rect fill="none" height="2" style="stroke:#181818;stroke-width:1.0;" width="4" x="630" y="627"/><rect fill="none" height="2" style="stroke:#181818;stroke-width:1.0;" width="4" x="630" y="631"/><text fill="#000000" font-family="sans-serif" font-size="14" font-weight="bold" lengthAdjust="spacing" textLength="53" x="388" y="645.9951">STM32</text></g><!--entity pGw--><g id="elem_pGw"><rect fill="#F1F1F1" height="46.2969" rx="2.5" ry="2.5" style="stroke:#181818;stroke-width:0.5;" width="102" x="414" y="218.5"/><path d="M448,218.5 L448,223.5 L441,230.5 L414,230.5 " fill="none" style="stroke:#181818;stroke-width:0.5;"/><text fill="#000000" font-family="sans-serif" font-size="14" lengthAdjust="spacing" textLength="62" x="429" y="251.4951">CodeOrb</text></g><!--entity pStSw--><g id="elem_pStSw"><rect fill="#F1F1F1" height="62.5938" rx="2.5" ry="2.5" style="stroke:#181818;stroke-width:0.5;" width="171" x="204.5" y="210"/><path d="M261.5,210 L261.5,215 L254.5,222 L204.5,222 " fill="none" style="stroke:#181818;stroke-width:0.5;"/><text fill="#000000" font-family="sans-serif" font-size="14" lengthAdjust="spacing" textLength="131" x="219.5" y="242.9951">STMicroelectronics</text><text fill="#000000" font-family="sans-serif" font-size="14" lengthAdjust="spacing" textLength="60" x="219.5" y="259.292">Software</text></g><!--entity pDrv--><g id="elem_pDrv"><rect fill="#F1F1F1" height="46.2969" rx="2.5" ry="2.5" style="stroke:#181818;stroke-width:0.5;" width="134" x="310" y="365"/><path d="M354.6667,365 L354.6667,370 L347.6667,377 L310,377 " fill="none" style="stroke:#181818;stroke-width:0.5;"/><text fill="#000000" font-family="sans-serif" font-size="14" lengthAdjust="spacing" textLength="94" x="325" y="397.9951">ST-Link Driver</text></g><!--entity pProg--><g id="elem_pProg"><rect fill="#F1F1F1" height="46.2969" rx="2.5" ry="2.5" style="stroke:#181818;stroke-width:0.5;" width="125" x="47.5" y="85"/><path d="M89.1667,85 L89.1667,90 L82.1667,97 L47.5,97 " fill="none" style="stroke:#181818;stroke-width:0.5;"/><text fill="#000000" font-family="sans-serif" font-size="14" lengthAdjust="spacing" textLength="85" x="62.5" y="117.9951">Programmer</text></g><!--entity pDbg--><g id="elem_pDbg"><rect fill="#F1F1F1" height="46.2969" rx="2.5" ry="2.5" style="stroke:#181818;stroke-width:0.5;" width="156" x="208" y="85"/><path d="M260,85 L260,90 L253,97 L208,97 " fill="none" style="stroke:#181818;stroke-width:0.5;"/><text fill="#000000" font-family="sans-serif" font-size="14" lengthAdjust="spacing" textLength="116" x="223" y="117.9951">Debugger (GDB)</text></g><!--entity pTree--><g id="elem_pTree"><rect fill="#F1F1F1" height="46.2969" rx="2.5" ry="2.5" style="stroke:#181818;stroke-width:0.5;" width="132" x="399" y="85"/><path d="M443,85 L443,90 L436,97 L399,97 " fill="none" style="stroke:#181818;stroke-width:0.5;"/><text fill="#000000" font-family="sans-serif" font-size="14" lengthAdjust="spacing" textLength="92" x="414" y="117.9951">Process Tree</text></g><!--entity pLog--><g id="elem_pLog"><rect fill="#F1F1F1" height="46.2969" rx="2.5" ry="2.5" style="stroke:#181818;stroke-width:0.5;" width="65" x="566.5" y="85"/><path d="M588.1667,85 L588.1667,90 L581.1667,97 L566.5,97 " fill="none" style="stroke:#181818;stroke-width:0.5;"/><text fill="#000000" font-family="sans-serif" font-size="14" lengthAdjust="spacing" textLength="25" x="581.5" y="117.9951">Log</text></g><!--entity pCmd--><g id="elem_pCmd"><rect fill="#F1F1F1" height="46.2969" rx="2.5" ry="2.5" style="stroke:#181818;stroke-width:0.5;" width="111" x="666.5" y="85"/><path d="M703.5,85 L703.5,90 L696.5,97 L666.5,97 " fill="none" style="stroke:#181818;stroke-width:0.5;"/><text fill="#000000" font-family="sans-serif" font-size="14" lengthAdjust="spacing" textLength="71" x="681.5" y="117.9951">Command</text></g><!--entity pStLink--><g id="elem_pStLink"><rect fill="#F1F1F1" height="46.2969" rx="2.5" ry="2.5" style="stroke:#181818;stroke-width:0.5;" width="90" x="332" y="511"/><rect fill="#F1F1F1" height="10" style="stroke:#181818;stroke-width:0.5;" width="15" x="402" y="516"/><rect fill="#F1F1F1" height="2" style="stroke:#181818;stroke-width:0.5;" width="4" x="400" y="518"/><rect fill="#F1F1F1" height="2" style="stroke:#181818;stroke-width:0.5;" width="4" x="400" y="522"/><text fill="#000000" font-family="sans-serif" font-size="14" lengthAdjust="spacing" textLength="50" x="347" y="543.9951">ST-Link</text></g><!--entity pHwDbg--><g id="elem_pHwDbg"><rect fill="#F1F1F1" height="62.5938" rx="2.5" ry="2.5" style="stroke:#181818;stroke-width:0.5;" width="211" x="193.5" y="655"/><rect fill="#F1F1F1" height="10" style="stroke:#181818;stroke-width:0.5;" width="15" x="384.5" y="660"/><rect fill="#F1F1F1" height="2" style="stroke:#181818;stroke-width:0.5;" width="4" x="382.5" y="662"/><rect fill="#F1F1F1" height="2" style="stroke:#181818;stroke-width:0.5;" width="4" x="382.5" y="666"/><text fill="#000000" font-family="sans-serif" font-size="14" lengthAdjust="spacing" textLength="122" x="208.5" y="687.9951">Programming and</text><text fill="#000000" font-family="sans-serif" font-size="14" lengthAdjust="spacing" textLength="171" x="208.5" y="704.292">Debug Hardware Module</text></g><!--entity pApp--><g id="elem_pApp"><rect fill="#ADD8E6" height="46.2969" rx="2.5" ry="2.5" style="stroke:#181818;stroke-width:0.5;" width="172" x="333" y="779"/><path d="M390.3333,779 L390.3333,784 L383.3333,791 L333,791 " fill="none" style="stroke:#181818;stroke-width:0.5;"/><text fill="#000000" font-family="sans-serif" font-size="14" lengthAdjust="spacing" textLength="132" x="348" y="811.9951">&#171;AppProcessing()&#187;</text></g><!--entity pSysDbg--><g id="elem_pSysDbg"><rect fill="#ADD8E6" height="46.2969" rx="2.5" ry="2.5" style="stroke:#181818;stroke-width:0.5;" width="196" x="440" y="663.5"/><path d="M505.3333,663.5 L505.3333,668.5 L498.3333,675.5 L440,675.5 " fill="none" style="stroke:#181818;stroke-width:0.5;"/><text fill="#000000" font-family="sans-serif" font-size="14" lengthAdjust="spacing" textLength="156" x="455" y="696.4951">&#171;SystemDebugging()&#187;</text></g><!--link pProg to pStSw--><g id="link_pProg_pStSw"><path d="M140.13,131.01 C169.65,152.58 210.065,182.1008 243.125,206.2508 " fill="none" id="pProg-to-pStSw" style="stroke:#181818;stroke-width:1.0;"/><polygon fill="#181818" points="247.97,209.79,243.062,201.2512,243.9325,206.8407,238.343,207.7112,247.97,209.79" style="stroke:#181818;stroke-width:1.0;"/></g><!--link pDbg to pStSw--><g id="link_pDbg_pStSw"><path d="M286.8513,137.0073 C287.5013,158.5073 288.1361,179.4228 288.8761,203.5528 " fill="none" id="pDbg-pStSw" style="stroke:#181818;stroke-width:1.0;"/><polygon fill="#181818" points="286.67,131.01,282.9438,140.1268,286.8211,136.0077,290.9401,139.885,286.67,131.01" style="stroke:#181818;stroke-width:1.0;"/><polygon fill="#181818" points="289.06,209.55,292.7822,200.4316,288.9067,204.5523,284.786,200.6768,289.06,209.55" style="stroke:#181818;stroke-width:1.0;"/></g><!--reverse link pTree to pGw--><g id="link_pTree_pGw"><path d="M465,137.01 C465,161.28 465,194.12 465,218.42 " fill="none" id="pTree-backto-pGw" style="stroke:#181818;stroke-width:2.0;"/><polygon fill="#181818" points="465,131.01,461,140.01,465,136.01,469,140.01,465,131.01" style="stroke:#181818;stroke-width:2.0;"/></g><!--reverse link pLog to pGw--><g id="link_pLog_pGw"><path d="M572.2877,135.2126 C547.5577,159.4826 512.27,194.12 487.5,218.42 " fill="none" id="pLog-backto-pGw" style="stroke:#181818;stroke-width:2.0;"/><polygon fill="#181818" points="576.57,131.01,567.3448,134.4591,573.0014,134.5122,572.9483,140.1688,576.57,131.01" style="stroke:#181818;stroke-width:2.0;"/></g><!--link pCmd to pGw--><g id="link_pCmd_pGw"><path d="M683.6872,134.4456 C671.3972,142.3156 662.29,147.76 649,155 C605.23,178.84 559.1276,200.0366 521.7276,216.3866 " fill="none" id="pCmd-pGw" style="stroke:#181818;stroke-width:2.0;"/><polygon fill="#181818" points="688.74,131.21,679.0037,132.6949,684.5293,133.9063,683.3179,139.4319,688.74,131.21" style="stroke:#181818;stroke-width:2.0;"/><polygon fill="#181818" points="516.23,218.79,526.0787,218.85,520.8113,216.7872,522.8742,211.5199,516.23,218.79" style="stroke:#181818;stroke-width:2.0;"/><text fill="#000000" font-family="sans-serif" font-size="13" lengthAdjust="spacing" textLength="39" x="630" y="176.0669">TCP/IP</text></g><!--link pStSw to pDrv--><g id="link_pStSw_pDrv"><path d="M311.5444,278.2805 C328.1044,305.7905 345.8256,335.2195 360.5856,359.7395 " fill="none" id="pStSw-pDrv" style="stroke:#181818;stroke-width:1.0;"/><polygon fill="#181818" points="308.45,273.14,309.6646,282.9137,311.0287,277.4238,316.5186,278.7878,308.45,273.14" style="stroke:#181818;stroke-width:1.0;"/><polygon fill="#181818" points="363.68,364.88,362.4655,355.1063,361.1014,360.5962,355.6114,359.2321,363.68,364.88" style="stroke:#181818;stroke-width:1.0;"/></g><!--link pGw to pDrv--><g id="link_pGw_pDrv"><path d="M448.3196,269.8848 C431.7396,297.1148 410.0697,332.6848 393.5497,359.8248 " fill="none" id="pGw-pDrv" style="stroke:#181818;stroke-width:1.0;"/><polygon fill="#181818" points="451.44,264.76,443.3429,270.3669,448.8397,269.0306,450.1759,274.5274,451.44,264.76" style="stroke:#181818;stroke-width:1.0;"/><polygon fill="#181818" points="390.43,364.95,398.5263,359.342,393.0297,360.679,391.6927,355.1824,390.43,364.95" style="stroke:#181818;stroke-width:1.0;"/><text fill="#000000" font-family="sans-serif" font-size="13" lengthAdjust="spacing" textLength="55" x="442" y="316.0669">COM1 or</text><text fill="#000000" font-family="sans-serif" font-size="13" lengthAdjust="spacing" textLength="85" x="427" y="331.1997">/dev/ttyACM0</text></g><!--link pStSw to pGw--><!--link pHwDbg to pApp--><g id="link_pHwDbg_pApp"><path d="M335.8293,722.3327 C356.0993,741.5027 373.0009,757.4971 391.2709,774.7771 " fill="none" id="pHwDbg-pApp" style="stroke:#181818;stroke-width:1.0;"/><polygon fill="#181818" points="331.47,718.21,335.2604,727.3002,335.1027,721.6456,340.7574,721.4879,331.47,718.21" style="stroke:#181818;stroke-width:1.0;"/><polygon fill="#181818" points="395.63,778.9,391.8399,769.8096,391.9974,775.4643,386.3428,775.6217,395.63,778.9" style="stroke:#181818;stroke-width:1.0;"/></g><!--link pSysDbg to pApp--><g id="link_pSysDbg_pApp"><path d="M510.4291,713.7921 C489.4691,733.7921 467.462,754.7791 446.512,774.7591 " fill="none" id="pSysDbg-pApp" style="stroke:#181818;stroke-width:1.0;"/><polygon fill="#181818" points="514.77,709.65,505.4973,712.9692,511.1526,713.1017,511.02,718.757,514.77,709.65" style="stroke:#181818;stroke-width:1.0;"/><polygon fill="#181818" points="442.17,778.9,451.4436,775.5832,445.7883,775.4492,445.9223,769.794,442.17,778.9" style="stroke:#181818;stroke-width:1.0;"/></g><!--link pStLink to pHwDbg--><g id="link_pStLink_pHwDbg"><path d="M362.7286,562.5368 C349.3386,588.3668 332.6716,620.5333 317.6416,649.5233 " fill="none" id="pStLink-pHwDbg" style="stroke:#181818;stroke-width:1.0;"/><polygon fill="#181818" points="365.49,557.21,357.7968,563.3593,363.1889,561.649,364.8992,567.0411,365.49,557.21" style="stroke:#181818;stroke-width:1.0;"/><polygon fill="#181818" points="314.88,654.85,322.5736,648.7011,317.1814,650.4111,315.4713,645.0189,314.88,654.85" style="stroke:#181818;stroke-width:1.0;"/><text fill="#000000" font-family="sans-serif" font-size="13" lengthAdjust="spacing" textLength="30" x="350" y="600.0669">SWD</text></g><!--link pStLink to pSysDbg--><g id="link_pStLink_pSysDbg"><path d="M405.1431,561.3073 C435.6631,589.8373 479.5765,630.893 510.0265,659.353 " fill="none" id="pStLink-pSysDbg" style="stroke:#181818;stroke-width:1.0;"/><polygon fill="#181818" points="400.76,557.21,404.6031,566.2781,404.4126,560.6244,410.0663,560.4339,400.76,557.21" style="stroke:#181818;stroke-width:1.0;"/><polygon fill="#181818" points="514.41,663.45,510.5661,654.3822,510.7571,660.0358,505.1035,660.2268,514.41,663.45" style="stroke:#181818;stroke-width:1.0;"/><text fill="#000000" font-family="sans-serif" font-size="13" lengthAdjust="spacing" textLength="51" x="448" y="600.0669">USART2</text></g><!--link pDrv to pStLink--><g id="link_pDrv_pStLink"><path d="M377,417.18 C377,444.17 377,477.45 377,504.55 " fill="none" id="pDrv-pStLink" style="stroke:#181818;stroke-width:1.0;"/><polygon fill="#181818" points="377,411.18,373,420.18,377,416.18,381,420.18,377,411.18" style="stroke:#181818;stroke-width:1.0;"/><polygon fill="#181818" points="377,510.55,381,501.55,377,505.55,373,501.55,377,510.55" style="stroke:#181818;stroke-width:1.0;"/><text fill="#000000" font-family="sans-serif" font-size="13" lengthAdjust="spacing" textLength="28" x="378" y="456.0669">USB</text></g><text fill="#888888" font-family="sans-serif" font-size="10" font-weight="bold" lengthAdjust="spacing" textLength="71" x="300.5" y="879.2822">Processing()</text><text fill="#888888" font-family="sans-serif" font-size="10" lengthAdjust="spacing" textLength="134" x="374.5" y="879.2822">- Debugging STM32 Targets</text><text fill="#888888" font-family="sans-serif" font-size="10" lengthAdjust="spacing" textLength="167" x="321" y="890.9229">(C) DSP-Crowd Electronics GmbH</text><!--SRC=[TLDDZzem43qdlsAK7lYGKhPKwW5H93PPGILOeYQhLRNq418JB18xSXmYjEA_Tnmd4BRjpPutRpppvha7nP6oF1HX1YbbH9vp0bp80pTxK4HXIk3XypVJZ7YMSqQO1C-1i83SY-3TD0r18Xco1DEiNxmK472U5bQTKH_h96EFvJ734pp1KqQ4pb3t6-gINPaaH41_uJuET8QxI-xv4IaA20GXpHjukk4hdkZmgblNuLaMibWZJXOZqeCMAml9iorp3Y5ZfErSHqtZWczVYyHa8tOQNrJNk1-iQIGuIL47mHcDYYtp-LvMeMXQzALVcPryUqNP4Ln1JwqChZXXGgq6sFQieHXgU9ZU0XXHusBeJHveT6GenVVnRrltesR-7uH3_mND50OJi0B76_tmB1D5QGR_TwvwN_NHjAIQDbI9wrKLSpRhBsYVBHl5v3IIyZntrW_MbMgBjmEDOyAQrYvTOrdFByxgQQCrUIwrlpemIlrrR6b3TSAjgIXB0DUyPRMFO1cAM2q1rZmkqsONo-hUKDEfVouaoRJri49_C9irQpiNIlzFAKqESfUM11ysEiv1AbM-VwM2129anPw8-mALxB2HUxbxU9xdZPtlM1Zkif2XcsvaHbY5ckOwiSj7hMgRjGvKPxs4sdoQf-jEm7zrFq9D_Gcy-FEVmLZjgTvmwyOwLQ6FfhddNEAd7Gwxumo7OCDLLQXN1q4e4YBnW_IT0RY-Ppk2Lp4ytVuEBBBTqlm3]--></g></svg>