<?xml version="1.0" encoding="us-ascii" standalone="no"?><svg xmlns="http://www.w3.org/2000/svg" xmlns:xlink="http://www.w3.org/1999/xlink" contentStyleType="text/css" height="961px" preserveAspectRatio="none" style="width:823px;height:961px;background:#FFFFFF;" version="1.1" viewBox="0 0 823 961" width="823px" zoomAndPan="magnify"><defs/><g><!--cluster pPc--><g id="cluster_pPc"><rect fill="none" height="420" rx="2.5" ry="2.5" style="stroke:#181818;stroke-width:1.0;" width="810" x="7" y="7"/><rect fill="none" height="10" style="stroke:#181818;stroke-width:1.0;" width="15" x="797" y="12"/><rect fill="none" height="2" style="stroke:#181818;stroke-width:1.0;" width="4" x="795" y="14"/><rect fill="none" height="2" style="stroke:#181818;stroke-width:1.0;" width="4" x="795" y="18"/><text fill="#000000" font-family="sans-serif" font-size="14" font-weight="bold" lengthAdjust="spacing" textLength="21" x="401.5" y="32.9951">PC</text></g><!--cluster pTools--><g id="cluster_pTools"><rect fill="none" height="97" rx="2.5" ry="2.5" style="stroke:#181818;stroke-width:1.0;" width="762" x="31" y="50"/><text fill="#000000" font-family="sans-serif" font-size="14" font-weight="bold" lengthAdjust="spacing" textLength="85" x="369.5" y="64.9951">Your Tools</text></g><!--cluster pNuc--><g id="cluster_pNuc"><rect fill="none" height="449" rx="2.5" ry="2.5" style="stroke:#181818;stroke-width:1.0;" width="620" x="141" y="476"/><rect fill="none" height="10" style="stroke:#181818;stroke-width:1.0;" width="15" x="741" y="481"/><rect fill="none" height="2" style="stroke:#181818;stroke-width:1.0;" width="4" x="739" y="483"/><rect fill="none" height="2" style="stroke:#181818;stroke-width:1.0;" width="4" x="739" y="487"/><text fill="#000000" font-family="sans-serif" font-size="14" font-weight="bold" lengthAdjust="spacing" textLength="63" x="419.5" y="501.9951">NUCLEO</text></g><!--cluster STM32--><g id="cluster_STM32"><rect fill="none" height="281" rx="2.5" ry="2.5" style="stroke:#181818;stroke-width:1.0;" width="572" x="165" y="620"/><rect fill="none" height="10" style="stroke:#181818;stroke-width:1.0;" width="15" x="717" y="625"/><rect fill="none" height="2" style="stroke:#181818;stroke-width:1.0;" width="4" x="715" y="627"/><rect fill="none" height="2" style="stroke:#181818;stroke-width:1.0;" width="4" x="715" y="631"/><text fill="#000000" font-family="sans-serif" font-size="14" font-weight="bold" lengthAdjust="spacing" textLength="53" x="424.5" y="645.9951">STM32</text></g><!--cluster pSysDbg--><g id="cluster_pSysDbg"><rect fill="none" height="113" rx="2.5" ry="2.5" style="stroke:#181818;stroke-width:1.0;" width="285" x="420" y="671"/><path d="M603,671 L603,680.2969 L593,690.2969 L420,690.2969 " fill="none" style="stroke:#181818;stroke-width:1.0;"/><text fill="#000000" font-family="sans-serif" font-size="14" font-weight="bold" lengthAdjust="spacing" textLength="173" x="423" y="684.9951">&#171;SystemDebugging()&#187;</text></g><!--entity pGw--><g id="elem_pGw"><rect fill="#F1F1F1" height="62.5938" rx="2.5" ry="2.5" style="stroke:#181818;stroke-width:0.5;" width="200" x="407" y="210"/><path d="M473.6667,210 L473.6667,215 L466.6667,222 L407,222 " fill="none" style="stroke:#181818;stroke-width:0.5;"/><text fill="#000000" font-family="sans-serif" font-size="14" lengthAdjust="spacing" textLength="160" x="422" y="242.9951">SingleWireTransfering()</text><text fill="#000000" font-family="sans-serif" font-size="14" lengthAdjust="spacing" textLength="59" x="422" y="259.292">Gateway</text></g><!--entity pStSw--><g id="elem_pStSw"><rect fill="#F1F1F1" height="62.5938" rx="2.5" ry="2.5" style="stroke:#181818;stroke-width:0.5;" width="171" x="200.5" y="210"/><path d="M257.5,210 L257.5,215 L250.5,222 L200.5,222 " fill="none" style="stroke:#181818;stroke-width:0.5;"/><text fill="#000000" font-family="sans-serif" font-size="14" lengthAdjust="spacing" textLength="131" x="215.5" y="242.9951">STMicroelectronics</text><text fill="#000000" font-family="sans-serif" font-size="14" lengthAdjust="spacing" textLength="60" x="215.5" y="259.292">Software</text></g><!--entity pDrv--><g id="elem_pDrv"><rect fill="#F1F1F1" height="46.2969" rx="2.5" ry="2.5" style="stroke:#181818;stroke-width:0.5;" width="134" x="309" y="365"/><path d="M353.6667,365 L353.6667,370 L346.6667,377 L309,377 " fill="none" style="stroke:#181818;stroke-width:0.5;"/><text fill="#000000" font-family="sans-serif" font-size="14" lengthAdjust="spacing" textLength="94" x="324" y="397.9951">ST-Link Driver</text></g><!--entity pProg--><g id="elem_pProg"><rect fill="#F1F1F1" height="46.2969" rx="2.5" ry="2.5" style="stroke:#181818;stroke-width:0.5;" width="125" x="47.5" y="85"/><path d="M89.1667,85 L89.1667,90 L82.1667,97 L47.5,97 " fill="none" style="stroke:#181818;stroke-width:0.5;"/><text fill="#000000" font-family="sans-serif" font-size="14" lengthAdjust="spacing" textLength="85" x="62.5" y="117.9951">Programmer</text></g><!--entity pDbg--><g id="elem_pDbg"><rect fill="#F1F1F1" height="46.2969" rx="2.5" ry="2.5" style="stroke:#181818;stroke-width:0.5;" width="156" x="208" y="85"/><path d="M260,85 L260,90 L253,97 L208,97 " fill="none" style="stroke:#181818;stroke-width:0.5;"/><text fill="#000000" font-family="sans-serif" font-size="14" lengthAdjust="spacing" textLength="116" x="223" y="117.9951">Debugger (GDB)</text></g><!--entity pTree--><g id="elem_pTree"><rect fill="#F1F1F1" height="46.2969" rx="2.5" ry="2.5" style="stroke:#181818;stroke-width:0.5;" width="132" x="399" y="85"/><path d="M443,85 L443,90 L436,97 L399,97 " fill="none" style="stroke:#181818;stroke-width:0.5;"/><text fill="#000000" font-family="sans-serif" font-size="14" lengthAdjust="spacing" textLength="92" x="414" y="117.9951">Process Tree</text></g><!--entity pLog--><g id="elem_pLog"><rect fill="#F1F1F1" height="46.2969" rx="2.5" ry="2.5" style="stroke:#181818;stroke-width:0.5;" width="65" x="566.5" y="85"/><path d="M588.1667,85 L588.1667,90 L581.1667,97 L566.5,97 " fill="none" style="stroke:#181818;stroke-width:0.5;"/><text fill="#000000" font-family="sans-serif" font-size="14" lengthAdjust="spacing" textLength="25" x="581.5" y="117.9951">Log</text></g><!--entity pCmd--><g id="elem_pCmd"><rect fill="#F1F1F1" height="46.2969" rx="2.5" ry="2.5" style="stroke:#181818;stroke-width:0.5;" width="111" x="666.5" y="85"/><path d="M703.5,85 L703.5,90 L696.5,97 L666.5,97 " fill="none" style="stroke:#181818;stroke-width:0.5;"/><text fill="#000000" font-family="sans-serif" font-size="14" lengthAdjust="spacing" textLength="71" x="681.5" y="117.9951">Command</text></g><!--entity pStLink--><g id="elem_pStLink"><rect fill="#F1F1F1" height="46.2969" rx="2.5" ry="2.5" style="stroke:#181818;stroke-width:0.5;" width="90" x="331" y="511"/><rect fill="#F1F1F1" height="10" style="stroke:#181818;stroke-width:0.5;" width="15" x="401" y="516"/><rect fill="#F1F1F1" height="2" style="stroke:#181818;stroke-width:0.5;" width="4" x="399" y="518"/><rect fill="#F1F1F1" height="2" style="stroke:#181818;stroke-width:0.5;" width="4" x="399" y="522"/><text fill="#000000" font-family="sans-serif" font-size="14" lengthAdjust="spacing" textLength="50" x="346" y="543.9951">ST-Link</text></g><!--entity pHwDbg--><g id="elem_pHwDbg"><rect fill="#F1F1F1" height="62.5938" rx="2.5" ry="2.5" style="stroke:#181818;stroke-width:0.5;" width="211" x="181.5" y="705.5"/><rect fill="#F1F1F1" height="10" style="stroke:#181818;stroke-width:0.5;" width="15" x="372.5" y="710.5"/><rect fill="#F1F1F1" height="2" style="stroke:#181818;stroke-width:0.5;" width="4" x="370.5" y="712.5"/><rect fill="#F1F1F1" height="2" style="stroke:#181818;stroke-width:0.5;" width="4" x="370.5" y="716.5"/><text fill="#000000" font-family="sans-serif" font-size="14" lengthAdjust="spacing" textLength="122" x="196.5" y="738.4951">Programming and</text><text fill="#000000" font-family="sans-serif" font-size="14" lengthAdjust="spacing" textLength="171" x="196.5" y="754.792">Debug Hardware Module</text></g><!--entity pApp--><g id="elem_pApp"><rect fill="#F1F1F1" height="46.2969" rx="2.5" ry="2.5" style="stroke:#181818;stroke-width:0.5;" width="172" x="271" y="839"/><path d="M328.3333,839 L328.3333,844 L321.3333,851 L271,851 " fill="none" style="stroke:#181818;stroke-width:0.5;"/><text fill="#000000" font-family="sans-serif" font-size="14" lengthAdjust="spacing" textLength="132" x="286" y="871.9951">&#171;AppProcessing()&#187;</text></g><!--entity pSwt--><g id="elem_pSwt"><rect fill="#F1F1F1" height="46.2969" rx="2.5" ry="2.5" style="stroke:#181818;stroke-width:0.5;" width="218" x="463" y="714"/><path d="M535.6667,714 L535.6667,719 L528.6667,726 L463,726 " fill="none" style="stroke:#181818;stroke-width:0.5;"/><text fill="#000000" font-family="sans-serif" font-size="14" lengthAdjust="spacing" textLength="178" x="478" y="746.9951">&#171;SingleWireTransfering()&#187;</text></g><!--link pProg to pStSw--><g id="link_pProg_pStSw"><path d="M139.46,131.01 C168.33,152.58 207.7736,182.0486 240.0936,206.1986 " fill="none" id="pProg-to-pStSw" style="stroke:#181818;stroke-width:1.0;"/><polygon fill="#181818" points="244.9,209.79,240.0847,201.1986,240.8947,206.7971,235.2961,207.6071,244.9,209.79" style="stroke:#181818;stroke-width:1.0;"/></g><!--link pDbg to pStSw--><g id="link_pDbg_pStSw"><path d="M286,137.01 C286,158.51 286,179.42 286,203.55 " fill="none" id="pDbg-pStSw" style="stroke:#181818;stroke-width:1.0;"/><polygon fill="#181818" points="286,131.01,282,140.01,286,136.01,290,140.01,286,131.01" style="stroke:#181818;stroke-width:1.0;"/><polygon fill="#181818" points="286,209.55,290,200.55,286,204.55,282,200.55,286,209.55" style="stroke:#181818;stroke-width:1.0;"/></g><!--reverse link pTree to pGw--><g id="link_pTree_pGw"><path d="M473.8562,136.7253 C480.7262,158.2253 489.41,185.42 497.11,209.55 " fill="none" id="pTree-backto-pGw" style="stroke:#181818;stroke-width:1.0;"/><polygon fill="#181818" points="472.03,131.01,470.9592,140.8005,473.5519,135.7728,478.5796,138.3655,472.03,131.01" style="stroke:#181818;stroke-width:1.0;"/></g><!--reverse link pLog to pGw--><g id="link_pLog_pGw"><path d="M580.1608,135.9265 C565.1208,157.4265 545.54,185.42 528.66,209.55 " fill="none" id="pLog-backto-pGw" style="stroke:#181818;stroke-width:1.0;"/><polygon fill="#181818" points="583.6,131.01,575.1635,136.0919,580.734,135.1071,581.7188,140.6775,583.6,131.01" style="stroke:#181818;stroke-width:1.0;"/></g><!--link pCmd to pGw--><g id="link_pCmd_pGw"><path d="M682.1158,134.3419 C670.0558,141.9519 661.5,147.3 649,155 C619.11,173.41 590.6087,190.6192 563.5687,206.7992 " fill="none" id="pCmd-pGw" style="stroke:#181818;stroke-width:1.0;"/><polygon fill="#181818" points="687.19,131.14,677.4441,132.56,682.9615,133.8082,681.7133,139.3257,687.19,131.14" style="stroke:#181818;stroke-width:1.0;"/><polygon fill="#181818" points="558.42,209.88,568.1968,208.6912,562.7105,207.3127,564.0891,201.8263,558.42,209.88" style="stroke:#181818;stroke-width:1.0;"/><text fill="#000000" font-family="sans-serif" font-size="13" lengthAdjust="spacing" textLength="39" x="634" y="176.0669">TCP/IP</text></g><!--link pStSw to pDrv--><g id="link_pStSw_pDrv"><path d="M308.2615,278.2333 C325.3915,305.7433 343.7782,335.2669 359.0482,359.7869 " fill="none" id="pStSw-pDrv" style="stroke:#181818;stroke-width:1.0;"/><polygon fill="#181818" points="305.09,273.14,306.4517,282.8943,307.7329,277.3844,313.2428,278.6656,305.09,273.14" style="stroke:#181818;stroke-width:1.0;"/><polygon fill="#181818" points="362.22,364.88,360.8578,355.1258,359.5769,360.6357,354.0669,359.3548,362.22,364.88" style="stroke:#181818;stroke-width:1.0;"/></g><!--link pGw to pDrv--><g id="link_pGw_pDrv"><path d="M475.1901,277.5852 C450.2501,305.0952 422.32,335.9149 400.09,360.4349 " fill="none" id="pGw-pDrv" style="stroke:#181818;stroke-width:1.0;"/><polygon fill="#181818" points="479.22,273.14,470.2117,277.1212,475.8617,276.8443,476.1386,282.4944,479.22,273.14" style="stroke:#181818;stroke-width:1.0;"/><polygon fill="#181818" points="396.06,364.88,405.0684,360.899,399.4183,361.1757,399.1416,355.5256,396.06,364.88" style="stroke:#181818;stroke-width:1.0;"/><text fill="#000000" font-family="sans-serif" font-size="13" lengthAdjust="spacing" textLength="55" x="465" y="316.0669">COM1 or</text><text fill="#000000" font-family="sans-serif" font-size="13" lengthAdjust="spacing" textLength="85" x="450" y="331.1997">/dev/ttyACM0</text></g><!--link pStSw to pGw--><!--link pHwDbg to pApp--><g id="link_pHwDbg_pApp"><path d="M307.4478,773.9346 C319.8378,795.7046 330.2429,813.985 341.3829,833.565 " fill="none" id="pHwDbg-pApp" style="stroke:#181818;stroke-width:1.0;"/><polygon fill="#181818" points="304.48,768.72,305.4553,778.5204,306.9532,773.0655,312.4081,774.5634,304.48,768.72" style="stroke:#181818;stroke-width:1.0;"/><polygon fill="#181818" points="344.35,838.78,343.3761,828.9794,341.8774,834.4341,336.4227,832.9355,344.35,838.78" style="stroke:#181818;stroke-width:1.0;"/></g><!--link pSysDbg to pApp--><g id="link_pSysDbg_pApp"><path d="M427.8597,790.1615 C427.5177,791.8387 427.9794,788.8664 427.5221,790.5087 C426.6075,793.7933 425.45,796.9862 424,800 C416.64,815.31 408.2322,824.7956 395.5722,834.9956 " fill="none" id="pSysDbg-pApp" style="stroke:#181818;stroke-width:1.0;"/><polygon fill="#181818" points="428.9643,784.2641,423.3757,792.3738,428.0438,789.1786,431.239,793.8467,428.9643,784.2641" style="stroke:#181818;stroke-width:1.0;"/><polygon fill="#181818" points="390.9,838.76,400.4179,836.2283,394.7935,835.623,395.3988,829.9987,390.9,838.76" style="stroke:#181818;stroke-width:1.0;"/></g><!--link pStLink to pHwDbg--><g id="link_pStLink_pHwDbg"><path d="M363.7102,562.766 C347.7302,598.846 321.0297,659.154 302.9597,699.954 " fill="none" id="pStLink-pHwDbg" style="stroke:#181818;stroke-width:1.0;"/><polygon fill="#181818" points="366.14,557.28,358.838,563.8891,364.1152,561.8517,366.1527,567.1288,366.14,557.28" style="stroke:#181818;stroke-width:1.0;"/><polygon fill="#181818" points="300.53,705.44,307.8319,698.8308,302.5548,700.8683,300.5172,695.5912,300.53,705.44" style="stroke:#181818;stroke-width:1.0;"/><text fill="#000000" font-family="sans-serif" font-size="13" lengthAdjust="spacing" textLength="30" x="353" y="600.0669">SWD</text></g><!--link pStLink to pSwt--><g id="link_pStLink_pSwt"><path d="M405.2962,561.0678 C422.0662,576.1878 440.04,592.87 459,612 C493.24,646.55 526.95,684.2737 548.99,709.4737 " fill="none" id="pStLink-pSwt" style="stroke:#181818;stroke-width:1.0;"/><polygon fill="#181818" points="400.84,557.05,404.8458,566.0474,404.5535,560.3981,410.2028,560.1058,400.84,557.05" style="stroke:#181818;stroke-width:1.0;"/><polygon fill="#181818" points="552.94,713.99,550.0259,704.5821,549.6483,710.2264,544.0041,709.8488,552.94,713.99" style="stroke:#181818;stroke-width:1.0;"/><text fill="#000000" font-family="sans-serif" font-size="13" lengthAdjust="spacing" textLength="51" x="451" y="600.0669">USART2</text></g><!--link pDrv to pStLink--><g id="link_pDrv_pStLink"><path d="M376,417.18 C376,444.17 376,477.45 376,504.55 " fill="none" id="pDrv-pStLink" style="stroke:#181818;stroke-width:1.0;"/><polygon fill="#181818" points="376,411.18,372,420.18,376,416.18,380,420.18,376,411.18" style="stroke:#181818;stroke-width:1.0;"/><polygon fill="#181818" points="376,510.55,380,501.55,376,505.55,372,501.55,376,510.55" style="stroke:#181818;stroke-width:1.0;"/><text fill="#000000" font-family="sans-serif" font-size="13" lengthAdjust="spacing" textLength="28" x="377" y="456.0669">USB</text></g><text fill="#888888" font-family="sans-serif" font-size="10" font-weight="bold" lengthAdjust="spacing" textLength="71" x="300.5" y="939.2822">Processing()</text><text fill="#888888" font-family="sans-serif" font-size="10" lengthAdjust="spacing" textLength="134" x="374.5" y="939.2822">- Debugging STM32 Targets</text><text fill="#888888" font-family="sans-serif" font-size="10" lengthAdjust="spacing" textLength="167" x="321" y="950.9229">(C) DSP-Crowd Electronics GmbH</text><!--SRC=[RLDTQ-9057qsl-AI5pyWQxSB-r14i4dH1Mt39gKiwpwCoHX3pKoO6GrI_E-zyn6DPTycvvxxTUv97-HxoMeYI0Nxab5rgYbmeNRSwuFCo9x2tRUVdfVngkQCCWLn24H27MVmuNazGJD5M84q_my_24WvtqlVCCpJa7fRB8-CMF02NnKLbg6_hz68RWv5GGKCvj7Zq3AYJN6Rdr4f8HMKkXxukiQNlB3mibitv5L5M6uZOPLZf0zjx20LhzOit176Q3kvHRtU6NixObBg9TzAGLD1cDnIWS1Wk6PpecX3JZPntbmJqbMP2KxtA93WhCpacYLygneYtEo9IffEWpHObkmT8b4UMtqYSKI2aGc2OEfIUbeLc5m1HBGE6h8ZwFqxNxYpeyyRU00_3UFnhzZtK0QtwYMiQ-cQ3j03z7JMvLFdXo-hx-YHDHldz3XMwZGBLtV-9JKGVtTbdbFspmvmxhh7VtuDbqylTh_dWpLH9uoo_RZthMiwSEiS51tmbcjcp08B8d8jAAnuVjWxNHVDhMica-Ga5QsilypPfbDtWfFKMduWkSF-_walEOr2-lccmQokdJTlg0Xhcft8QQWnX5pd3dR-AeJnGsiL_ROA6vVOF5lt0PAtw6i8fyJ0QpBxdTxh2vZRjPunF1rzzBmjvmh_kT6eky1e105Sz09p54Y9AAX26m_28KH978I2DpayNHqEysgpy3u1]--></g></svg>