<?xml version="1.0" encoding="us-ascii" standalone="no"?><svg xmlns="http://www.w3.org/2000/svg" xmlns:xlink="http://www.w3.org/1999/xlink" contentStyleType="text/css" height="961px" preserveAspectRatio="none" style="width:823px;height:961px;background:#FFFFFF;" version="1.1" viewBox="0 0 823 961" width="823px" zoomAndPan="magnify"><defs/><g><!--cluster pNuc--><g id="cluster_pNuc"><rect fill="none" height="449" rx="2.5" ry="2.5" style="stroke:#181818;stroke-width:1.0;" width="620" x="98" y="7"/><rect fill="none" height="10" style="stroke:#181818;stroke-width:1.0;" width="15" x="698" y="12"/><rect fill="none" height="2" style="stroke:#181818;stroke-width:1.0;" width="4" x="696" y="14"/><rect fill="none" height="2" style="stroke:#181818;stroke-width:1.0;" width="4" x="696" y="18"/><text fill="#000000" font-family="sans-serif" font-size="14" font-weight="bold" lengthAdjust="spacing" textLength="63" x="376.5" y="32.9951">NUCLEO</text></g><!--cluster STM32--><g id="cluster_STM32"><rect fill="none" height="281" rx="2.5" ry="2.5" style="stroke:#181818;stroke-width:1.0;" width="572" x="122" y="50"/><rect fill="none" height="10" style="stroke:#181818;stroke-width:1.0;" width="15" x="674" y="55"/><rect fill="none" height="2" style="stroke:#181818;stroke-width:1.0;" width="4" x="672" y="57"/><rect fill="none" height="2" style="stroke:#181818;stroke-width:1.0;" width="4" x="672" y="61"/><text fill="#000000" font-family="sans-serif" font-size="14" font-weight="bold" lengthAdjust="spacing" textLength="53" x="381.5" y="75.9951">STM32</text></g><!--cluster pSysDbg--><g id="cluster_pSysDbg"><rect fill="none" height="113" rx="2.5" ry="2.5" style="stroke:#181818;stroke-width:1.0;" width="285" x="377" y="186"/><path d="M560,186 L560,195.2969 L550,205.2969 L377,205.2969 " fill="none" style="stroke:#181818;stroke-width:1.0;"/><text fill="#000000" font-family="sans-serif" font-size="14" font-weight="bold" lengthAdjust="spacing" textLength="173" x="380" y="199.9951">&#171;SystemDebugging()&#187;</text></g><!--cluster pPc--><g id="cluster_pPc"><rect fill="none" height="420" rx="2.5" ry="2.5" style="stroke:#181818;stroke-width:1.0;" width="810" x="7" y="505"/><rect fill="none" height="10" style="stroke:#181818;stroke-width:1.0;" width="15" x="797" y="510"/><rect fill="none" height="2" style="stroke:#181818;stroke-width:1.0;" width="4" x="795" y="512"/><rect fill="none" height="2" style="stroke:#181818;stroke-width:1.0;" width="4" x="795" y="516"/><text fill="#000000" font-family="sans-serif" font-size="14" font-weight="bold" lengthAdjust="spacing" textLength="21" x="401.5" y="530.9951">PC</text></g><!--cluster pTools--><g id="cluster_pTools"><rect fill="none" height="97" rx="2.5" ry="2.5" style="stroke:#181818;stroke-width:1.0;" width="762" x="31" y="804"/><text fill="#000000" font-family="sans-serif" font-size="14" font-weight="bold" lengthAdjust="spacing" textLength="85" x="369.5" y="818.9951">Your Tools</text></g><!--entity pStLink--><g id="elem_pStLink"><rect fill="#F1F1F1" height="46.2969" rx="2.5" ry="2.5" style="stroke:#181818;stroke-width:0.5;" width="90" x="288" y="394"/><rect fill="#F1F1F1" height="10" style="stroke:#181818;stroke-width:0.5;" width="15" x="358" y="399"/><rect fill="#F1F1F1" height="2" style="stroke:#181818;stroke-width:0.5;" width="4" x="356" y="401"/><rect fill="#F1F1F1" height="2" style="stroke:#181818;stroke-width:0.5;" width="4" x="356" y="405"/><text fill="#000000" font-family="sans-serif" font-size="14" lengthAdjust="spacing" textLength="50" x="303" y="426.9951">ST-Link</text></g><!--entity pApp--><g id="elem_pApp"><rect fill="#F1F1F1" height="46.2969" rx="2.5" ry="2.5" style="stroke:#181818;stroke-width:0.5;" width="172" x="228" y="85"/><path d="M285.3333,85 L285.3333,90 L278.3333,97 L228,97 " fill="none" style="stroke:#181818;stroke-width:0.5;"/><text fill="#000000" font-family="sans-serif" font-size="14" lengthAdjust="spacing" textLength="132" x="243" y="117.9951">&#171;AppProcessing()&#187;</text></g><!--entity pHwDbg--><g id="elem_pHwDbg"><rect fill="#F1F1F1" height="62.5938" rx="2.5" ry="2.5" style="stroke:#181818;stroke-width:0.5;" width="211" x="138.5" y="220.5"/><rect fill="#F1F1F1" height="10" style="stroke:#181818;stroke-width:0.5;" width="15" x="329.5" y="225.5"/><rect fill="#F1F1F1" height="2" style="stroke:#181818;stroke-width:0.5;" width="4" x="327.5" y="227.5"/><rect fill="#F1F1F1" height="2" style="stroke:#181818;stroke-width:0.5;" width="4" x="327.5" y="231.5"/><text fill="#000000" font-family="sans-serif" font-size="14" lengthAdjust="spacing" textLength="122" x="153.5" y="253.4951">Programming and</text><text fill="#000000" font-family="sans-serif" font-size="14" lengthAdjust="spacing" textLength="171" x="153.5" y="269.792">Debug Hardware Module</text></g><!--entity pSwt--><g id="elem_pSwt"><rect fill="#F1F1F1" height="46.2969" rx="2.5" ry="2.5" style="stroke:#181818;stroke-width:0.5;" width="218" x="420" y="229"/><path d="M492.6667,229 L492.6667,234 L485.6667,241 L420,241 " fill="none" style="stroke:#181818;stroke-width:0.5;"/><text fill="#000000" font-family="sans-serif" font-size="14" lengthAdjust="spacing" textLength="178" x="435" y="261.9951">&#171;SingleWireTransfering()&#187;</text></g><!--entity pDrv--><g id="elem_pDrv"><rect fill="#F1F1F1" height="46.2969" rx="2.5" ry="2.5" style="stroke:#181818;stroke-width:0.5;" width="134" x="266" y="540"/><path d="M310.6667,540 L310.6667,545 L303.6667,552 L266,552 " fill="none" style="stroke:#181818;stroke-width:0.5;"/><text fill="#000000" font-family="sans-serif" font-size="14" lengthAdjust="spacing" textLength="94" x="281" y="572.9951">ST-Link Driver</text></g><!--entity pGw--><g id="elem_pGw"><rect fill="#F1F1F1" height="62.5938" rx="2.5" ry="2.5" style="stroke:#181818;stroke-width:0.5;" width="200" x="407" y="678"/><path d="M473.6667,678 L473.6667,683 L466.6667,690 L407,690 " fill="none" style="stroke:#181818;stroke-width:0.5;"/><text fill="#000000" font-family="sans-serif" font-size="14" lengthAdjust="spacing" textLength="160" x="422" y="710.9951">SingleWireTransfering()</text><text fill="#000000" font-family="sans-serif" font-size="14" lengthAdjust="spacing" textLength="59" x="422" y="727.292">Gateway</text></g><!--entity pStSw--><g id="elem_pStSw"><rect fill="#F1F1F1" height="62.5938" rx="2.5" ry="2.5" style="stroke:#181818;stroke-width:0.5;" width="171" x="200.5" y="678"/><path d="M257.5,678 L257.5,683 L250.5,690 L200.5,690 " fill="none" style="stroke:#181818;stroke-width:0.5;"/><text fill="#000000" font-family="sans-serif" font-size="14" lengthAdjust="spacing" textLength="131" x="215.5" y="710.9951">STMicroelectronics</text><text fill="#000000" font-family="sans-serif" font-size="14" lengthAdjust="spacing" textLength="60" x="215.5" y="727.292">Software</text></g><!--entity pProg--><g id="elem_pProg"><rect fill="#F1F1F1" height="46.2969" rx="2.5" ry="2.5" style="stroke:#181818;stroke-width:0.5;" width="125" x="47.5" y="839"/><path d="M89.1667,839 L89.1667,844 L82.1667,851 L47.5,851 " fill="none" style="stroke:#181818;stroke-width:0.5;"/><text fill="#000000" font-family="sans-serif" font-size="14" lengthAdjust="spacing" textLength="85" x="62.5" y="871.9951">Programmer</text></g><!--entity pDbg--><g id="elem_pDbg"><rect fill="#F1F1F1" height="46.2969" rx="2.5" ry="2.5" style="stroke:#181818;stroke-width:0.5;" width="156" x="208" y="839"/><path d="M260,839 L260,844 L253,851 L208,851 " fill="none" style="stroke:#181818;stroke-width:0.5;"/><text fill="#000000" font-family="sans-serif" font-size="14" lengthAdjust="spacing" textLength="116" x="223" y="871.9951">Debugger (GDB)</text></g><!--entity pTree--><g id="elem_pTree"><rect fill="#F1F1F1" height="46.2969" rx="2.5" ry="2.5" style="stroke:#181818;stroke-width:0.5;" width="132" x="399" y="839"/><path d="M443,839 L443,844 L436,851 L399,851 " fill="none" style="stroke:#181818;stroke-width:0.5;"/><text fill="#000000" font-family="sans-serif" font-size="14" lengthAdjust="spacing" textLength="92" x="414" y="871.9951">Process Tree</text></g><!--entity pLog--><g id="elem_pLog"><rect fill="#F1F1F1" height="46.2969" rx="2.5" ry="2.5" style="stroke:#181818;stroke-width:0.5;" width="65" x="566.5" y="839"/><path d="M588.1667,839 L588.1667,844 L581.1667,851 L566.5,851 " fill="none" style="stroke:#181818;stroke-width:0.5;"/><text fill="#000000" font-family="sans-serif" font-size="14" lengthAdjust="spacing" textLength="25" x="581.5" y="871.9951">Log</text></g><!--entity pCmd--><g id="elem_pCmd"><rect fill="#F1F1F1" height="46.2969" rx="2.5" ry="2.5" style="stroke:#181818;stroke-width:0.5;" width="111" x="666.5" y="839"/><path d="M703.5,839 L703.5,844 L696.5,851 L666.5,851 " fill="none" style="stroke:#181818;stroke-width:0.5;"/><text fill="#000000" font-family="sans-serif" font-size="14" lengthAdjust="spacing" textLength="71" x="681.5" y="871.9951">Command</text></g><!--link pApp to pHwDbg--><g id="link_pApp_pHwDbg"><path d="M300.4073,136.5718 C288.6073,160.5118 275.0211,188.0575 261.8011,214.8975 " fill="none" id="pApp-pHwDbg" style="stroke:#181818;stroke-width:1.0;"/><polygon fill="#181818" points="303.06,131.19,295.4932,137.4942,300.8494,135.6748,302.6688,141.0311,303.06,131.19" style="stroke:#181818;stroke-width:1.0;"/><polygon fill="#181818" points="259.15,220.28,266.7151,213.9737,261.3593,215.7946,259.5384,210.4388,259.15,220.28" style="stroke:#181818;stroke-width:1.0;"/></g><!--link pApp to pSysDbg--><g id="link_pApp_pSysDbg"><path d="M352.6937,134.9425 C365.3637,145.1425 373.75,154.63 381,170 C382.8625,173.9475 384.3327,178.1267 385.4782,182.4237 C385.7645,183.4979 384.7021,178.7284 384.9489,179.8156 " fill="none" id="pApp-pSysDbg" style="stroke:#181818;stroke-width:1.0;"/><polygon fill="#181818" points="348.02,131.18,352.5221,139.9396,351.9147,134.3155,357.5389,133.708,348.02,131.18" style="stroke:#181818;stroke-width:1.0;"/><polygon fill="#181818" points="386.2775,185.6666,388.1854,176.0043,385.1704,180.7908,380.3839,177.7757,386.2775,185.6666" style="stroke:#181818;stroke-width:1.0;"/></g><!--link pSwt to pStLink--><g id="link_pSwt_pStLink"><path d="M497.5468,279.1565 C460.0068,310.3765 401.4932,359.0435 364.1332,390.1135 " fill="none" id="pSwt-pStLink" style="stroke:#181818;stroke-width:1.0;"/><polygon fill="#181818" points="502.16,275.32,492.6826,277.9993,498.3157,278.5171,497.7979,284.1502,502.16,275.32" style="stroke:#181818;stroke-width:1.0;"/><polygon fill="#181818" points="359.52,393.95,368.9974,391.2707,363.3643,390.7529,363.8821,385.1198,359.52,393.95" style="stroke:#181818;stroke-width:1.0;"/><text fill="#000000" font-family="sans-serif" font-size="13" lengthAdjust="spacing" textLength="51" x="414" y="360.0669">USART2</text></g><!--link pHwDbg to pStLink--><g id="link_pHwDbg_pStLink"><path d="M263.6152,288.9262 C281.1352,321.0162 302.4747,360.0938 318.0247,388.5738 " fill="none" id="pHwDbg-pStLink" style="stroke:#181818;stroke-width:1.0;"/><polygon fill="#181818" points="260.74,283.66,261.5419,293.4762,263.136,288.0485,268.5636,289.6426,260.74,283.66" style="stroke:#181818;stroke-width:1.0;"/><polygon fill="#181818" points="320.9,393.84,320.0978,384.0239,318.5039,389.4515,313.0762,387.8576,320.9,393.84" style="stroke:#181818;stroke-width:1.0;"/><text fill="#000000" font-family="sans-serif" font-size="13" lengthAdjust="spacing" textLength="30" x="305" y="360.0669">SWD</text></g><!--link pDrv to pStSw--><g id="link_pDrv_pStSw"><path d="M323.9045,591.9659 C315.9245,616.5059 306.7462,644.7343 297.8162,672.1843 " fill="none" id="pDrv-pStSw" style="stroke:#181818;stroke-width:1.0;"/><polygon fill="#181818" points="325.76,586.26,319.1729,593.5819,324.2138,591.0149,326.7807,596.0558,325.76,586.26" style="stroke:#181818;stroke-width:1.0;"/><polygon fill="#181818" points="295.96,677.89,302.548,670.5689,297.5068,673.1353,294.9405,668.0941,295.96,677.89" style="stroke:#181818;stroke-width:1.0;"/></g><!--link pDrv to pGw--><g id="link_pDrv_pGw"><path d="M364.4259,590.0933 C393.9759,614.6333 432.4638,646.6071 465.5238,674.0571 " fill="none" id="pDrv-pGw" style="stroke:#181818;stroke-width:1.0;"/><polygon fill="#181818" points="359.81,586.26,364.1783,595.0871,363.6565,589.4544,369.2893,588.9327,359.81,586.26" style="stroke:#181818;stroke-width:1.0;"/><polygon fill="#181818" points="470.14,677.89,465.771,669.0633,466.2932,674.696,460.6605,675.2182,470.14,677.89" style="stroke:#181818;stroke-width:1.0;"/><text fill="#000000" font-family="sans-serif" font-size="13" lengthAdjust="spacing" textLength="55" x="446" y="629.0669">COM1 or</text><text fill="#000000" font-family="sans-serif" font-size="13" lengthAdjust="spacing" textLength="85" x="431" y="644.1997">/dev/ttyACM0</text></g><!--link pGw to pTree--><g id="link_pGw_pTree"><path d="M498.4,741.32 C490.29,770.39 479.9425,807.4507 472.7525,833.2207 " fill="none" id="pGw-to-pTree" style="stroke:#181818;stroke-width:1.0;"/><polygon fill="#181818" points="471.14,839,477.4115,831.4061,472.4837,834.1839,469.7058,829.2561,471.14,839" style="stroke:#181818;stroke-width:1.0;"/></g><!--link pGw to pLog--><g id="link_pGw_pLog"><path d="M525.84,741.32 C543.61,770.39 566.6711,808.1105 582.4211,833.8805 " fill="none" id="pGw-to-pLog" style="stroke:#181818;stroke-width:1.0;"/><polygon fill="#181818" points="585.55,839,584.2696,829.2347,582.9425,834.7337,577.4436,833.4066,585.55,839" style="stroke:#181818;stroke-width:1.0;"/></g><!--link pGw to pCmd--><g id="link_pGw_pCmd"><path d="M568.3524,744.0792 C595.1024,759.4492 621.89,776.04 649,796 C666.76,809.08 680.9394,821.5293 694.8994,834.6593 " fill="none" id="pGw-pCmd" style="stroke:#181818;stroke-width:1.0;"/><polygon fill="#181818" points="563.15,741.09,568.9608,749.042,567.4853,743.581,572.9464,742.1055,563.15,741.09" style="stroke:#181818;stroke-width:1.0;"/><polygon fill="#181818" points="699.27,838.77,695.4546,829.6902,695.6279,835.3444,689.9737,835.5176,699.27,838.77" style="stroke:#181818;stroke-width:1.0;"/><text fill="#000000" font-family="sans-serif" font-size="13" lengthAdjust="spacing" textLength="39" x="635" y="784.0669">TCP/IP</text></g><!--reverse link pStSw to pProg--><g id="link_pStSw_pProg"><path d="M245.4002,745.2198 C211.4102,774.2898 165.86,813.23 135.73,839 " fill="none" id="pStSw-backto-pProg" style="stroke:#181818;stroke-width:1.0;"/><polygon fill="#181818" points="249.96,741.32,240.5205,744.1298,246.1602,744.5698,245.7202,750.2095,249.96,741.32" style="stroke:#181818;stroke-width:1.0;"/></g><!--link pStSw to pDbg--><g id="link_pStSw_pDbg"><path d="M286,747.32 C286,776.39 286,807.23 286,833 " fill="none" id="pStSw-pDbg" style="stroke:#181818;stroke-width:1.0;"/><polygon fill="#181818" points="286,741.32,282,750.32,286,746.32,290,750.32,286,741.32" style="stroke:#181818;stroke-width:1.0;"/><polygon fill="#181818" points="286,839,290,830,286,834,282,830,286,839" style="stroke:#181818;stroke-width:1.0;"/></g><!--link pStSw to pGw--><!--link pStLink to pDrv--><g id="link_pStLink_pDrv"><path d="M333,446.18 C333,473.17 333,506.45 333,533.55 " fill="none" id="pStLink-pDrv" style="stroke:#181818;stroke-width:1.0;"/><polygon fill="#181818" points="333,440.18,329,449.18,333,445.18,337,449.18,333,440.18" style="stroke:#181818;stroke-width:1.0;"/><polygon fill="#181818" points="333,539.55,337,530.55,333,534.55,329,530.55,333,539.55" style="stroke:#181818;stroke-width:1.0;"/><text fill="#000000" font-family="sans-serif" font-size="13" lengthAdjust="spacing" textLength="28" x="334" y="485.0669">USB</text></g><text fill="#888888" font-family="sans-serif" font-size="10" font-weight="bold" lengthAdjust="spacing" textLength="71" x="300.5" y="939.2822">Processing()</text><text fill="#888888" font-family="sans-serif" font-size="10" lengthAdjust="spacing" textLength="134" x="374.5" y="939.2822">- Debugging STM32 Targets</text><text fill="#888888" font-family="sans-serif" font-size="10" lengthAdjust="spacing" textLength="167" x="321" y="950.9229">(C) DSP-Crowd Electronics GmbH</text><!--SRC=[RLDDQzj04BtlhnXqyGUeJbFeeHY38mMxO2UYKWYbwc4jZMKHQLUirXQcvBzdFoH5ChtjpdlpvktCx0JgjvnLLD0IYfoXl5O8NCWJ9nEe4reWt7tvJaZ2ouepP1ASfnTlz_Zi0AsXUZedy8yGW04UHljlzuuD0noLCeApNAwhAX0ymRhEMJQThLPMGOLlYE6rbbZwU3XdsOYg0F-GAM60SO9Y5VYQ2um4PVKHnJYjaIRZtTOPE5L-CYLIAZfGbiRC58Kj5Mb31SAUf-S2hSgsKRMjWlOCIzTTTT6ReFL9segZphYxdBsrjgG-QuPssAMQ8Fo0bt3zAxhNe2bn2uUlFdaVJYNmZ6ZGZgFjJLiGV95VKDYwlhWC6V_lNSmsL693hpPdqmmrztaYE1QOIC5PdjGn2_bHwevrBmiRNK8e1jNouFpcPm4HvqLjAUPuioBTD3gZ-Zx4xKQWWEd6VvYrZ-bcygcXDmmYWQqPVHeoTZopm6wixl6oL3jWCQzC3JRfqNCjUHapxqGPm-uLDjeDMdUsdrFOZ2ERHatDyPxtNzNlYjaYnSj2oklQszyv9baH3B7rsz-jJNsrGigQLegyOF4pS8ZsE02j8RDJoeAEzdti8wk-RJRaYZ-dF4sH_NNDfDLZkaLhsUeLUYCV23boBjK4vlFXLvxFmON-luBv_n1HaQ5Kkp7rPk27WUi9tgJm-Basi2aFM_81]--></g></svg>