<?xml version="1.0" encoding="us-ascii" standalone="no"?><svg xmlns="http://www.w3.org/2000/svg" xmlns:xlink="http://www.w3.org/1999/xlink" contentStyleType="text/css" height="576.6px" preserveAspectRatio="none" style="width:493px;height:576px;background:#FFFFFF;" version="1.1" viewBox="0 0 493 576" width="493.8px" zoomAndPan="magnify"><defs/><g><!--cluster pNuc--><g id="cluster_pNuc"><rect fill="none" height="269.4" rx="1.5" ry="1.5" style="stroke:#181818;stroke-width:0.6;" width="361.2" x="64.8" y="4.2"/><rect fill="none" height="6" style="stroke:#181818;stroke-width:0.6;" width="9" x="414" y="7.2"/><rect fill="none" height="1.2" style="stroke:#181818;stroke-width:0.6;" width="2.4" x="412.8" y="8.4"/><rect fill="none" height="1.2" style="stroke:#181818;stroke-width:0.6;" width="2.4" x="412.8" y="10.8"/><text fill="#000000" font-family="sans-serif" font-size="8.4" font-weight="bold" lengthAdjust="spacing" textLength="37.8" x="226.5" y="19.7971">NUCLEO</text></g><!--cluster STM32--><g id="cluster_STM32"><rect fill="none" height="168.6" rx="1.5" ry="1.5" style="stroke:#181818;stroke-width:0.6;" width="332.4" x="79.2" y="30"/><rect fill="none" height="6" style="stroke:#181818;stroke-width:0.6;" width="9" x="399.6" y="33"/><rect fill="none" height="1.2" style="stroke:#181818;stroke-width:0.6;" width="2.4" x="398.4" y="34.2"/><rect fill="none" height="1.2" style="stroke:#181818;stroke-width:0.6;" width="2.4" x="398.4" y="36.6"/><text fill="#000000" font-family="sans-serif" font-size="8.4" font-weight="bold" lengthAdjust="spacing" textLength="31.8" x="229.5" y="45.5971">STM32</text></g><!--cluster pSysDbg--><g id="cluster_pSysDbg"><rect fill="none" height="67.8" rx="1.5" ry="1.5" style="stroke:#181818;stroke-width:0.6;" width="160.2" x="232.2" y="111.6"/><path d="M331.2,111.6 L331.2,117.1781 L325.2,123.1781 L232.2,123.1781 " fill="none" style="stroke:#181818;stroke-width:0.6;"/><text fill="#000000" font-family="sans-serif" font-size="8.4" font-weight="bold" lengthAdjust="spacing" textLength="93" x="234" y="119.9971">SystemDebugging()</text></g><!--cluster pPc--><g id="cluster_pPc"><rect fill="none" height="252" rx="1.5" ry="1.5" style="stroke:#181818;stroke-width:0.6;" width="486" x="4.2" y="303"/><rect fill="none" height="6" style="stroke:#181818;stroke-width:0.6;" width="9" x="478.2" y="306"/><rect fill="none" height="1.2" style="stroke:#181818;stroke-width:0.6;" width="2.4" x="477" y="307.2"/><rect fill="none" height="1.2" style="stroke:#181818;stroke-width:0.6;" width="2.4" x="477" y="309.6"/><text fill="#000000" font-family="sans-serif" font-size="8.4" font-weight="bold" lengthAdjust="spacing" textLength="12.6" x="240.9" y="318.5971">PC</text></g><!--cluster pTools--><g id="cluster_pTools"><rect fill="none" height="58.2" rx="1.5" ry="1.5" style="stroke:#181818;stroke-width:0.6;" width="457.2" x="18.6" y="482.4"/><text fill="#000000" font-family="sans-serif" font-size="8.4" font-weight="bold" lengthAdjust="spacing" textLength="51" x="221.7" y="491.3971">Your Tools</text></g><!--entity pStLink--><g id="elem_pStLink"><rect fill="#F1F1F1" height="27.7781" rx="1.5" ry="1.5" style="stroke:#181818;stroke-width:0.3;" width="54" x="177.6" y="236.4"/><rect fill="#F1F1F1" height="6" style="stroke:#181818;stroke-width:0.3;" width="9" x="219.6" y="239.4"/><rect fill="#F1F1F1" height="1.2" style="stroke:#181818;stroke-width:0.3;" width="2.4" x="218.4" y="240.6"/><rect fill="#F1F1F1" height="1.2" style="stroke:#181818;stroke-width:0.3;" width="2.4" x="218.4" y="243"/><text fill="#000000" font-family="sans-serif" font-size="8.4" lengthAdjust="spacing" textLength="30" x="186.6" y="256.1971">ST-Link</text></g><!--entity pApp--><g id="elem_pApp"><rect fill="#F1F1F1" height="27.7781" rx="1.5" ry="1.5" style="stroke:#181818;stroke-width:0.3;" width="92.4" x="148.2" y="51"/><path d="M179,51 L179,54 L174.8,58.2 L148.2,58.2 " fill="none" style="stroke:#181818;stroke-width:0.3;"/><text fill="#000000" font-family="sans-serif" font-size="8.4" lengthAdjust="spacing" textLength="68.4" x="157.2" y="70.7971">AppProcessing()</text></g><!--entity pHwDbg--><g id="elem_pHwDbg"><rect fill="#F1F1F1" height="37.5563" rx="1.5" ry="1.5" style="stroke:#181818;stroke-width:0.3;" width="126.6" x="89.1" y="132.3"/><rect fill="#F1F1F1" height="6" style="stroke:#181818;stroke-width:0.3;" width="9" x="203.7" y="135.3"/><rect fill="#F1F1F1" height="1.2" style="stroke:#181818;stroke-width:0.3;" width="2.4" x="202.5" y="136.5"/><rect fill="#F1F1F1" height="1.2" style="stroke:#181818;stroke-width:0.3;" width="2.4" x="202.5" y="138.9"/><text fill="#000000" font-family="sans-serif" font-size="8.4" lengthAdjust="spacing" textLength="73.2" x="98.1" y="152.0971">Programming and</text><text fill="#000000" font-family="sans-serif" font-size="8.4" lengthAdjust="spacing" textLength="102.6" x="98.1" y="161.8752">Debug Hardware Module</text></g><!--entity pSwt--><g id="elem_pSwt"><rect fill="#F1F1F1" height="27.7781" rx="1.5" ry="1.5" style="stroke:#181818;stroke-width:0.3;" width="120" x="258" y="137.4"/><path d="M298,137.4 L298,140.4 L293.8,144.6 L258,144.6 " fill="none" style="stroke:#181818;stroke-width:0.3;"/><text fill="#000000" font-family="sans-serif" font-size="8.4" lengthAdjust="spacing" textLength="96" x="267" y="157.1971">SingleWireTransfering()</text></g><!--entity pDrv--><g id="elem_pDrv"><rect fill="#F1F1F1" height="27.7781" rx="1.5" ry="1.5" style="stroke:#181818;stroke-width:0.3;" width="80.4" x="164.4" y="324"/><path d="M191.2,324 L191.2,327 L187,331.2 L164.4,331.2 " fill="none" style="stroke:#181818;stroke-width:0.3;"/><text fill="#000000" font-family="sans-serif" font-size="8.4" lengthAdjust="spacing" textLength="56.4" x="173.4" y="343.7971">ST-Link Driver</text></g><!--entity pGw--><g id="elem_pGw"><rect fill="#F1F1F1" height="37.5563" rx="1.5" ry="1.5" style="stroke:#181818;stroke-width:0.3;" width="118.8" x="244.2" y="406.8"/><path d="M283.8,406.8 L283.8,409.8 L279.6,414 L244.2,414 " fill="none" style="stroke:#181818;stroke-width:0.3;"/><text fill="#000000" font-family="sans-serif" font-size="8.4" lengthAdjust="spacing" textLength="94.8" x="253.2" y="426.5971">Single Wire Transfering</text><text fill="#000000" font-family="sans-serif" font-size="8.4" lengthAdjust="spacing" textLength="35.4" x="253.2" y="436.3752">Gateway</text></g><!--entity pStSw--><g id="elem_pStSw"><rect fill="#F1F1F1" height="37.5563" rx="1.5" ry="1.5" style="stroke:#181818;stroke-width:0.3;" width="102.6" x="120.3" y="406.8"/><path d="M154.5,406.8 L154.5,409.8 L150.3,414 L120.3,414 " fill="none" style="stroke:#181818;stroke-width:0.3;"/><text fill="#000000" font-family="sans-serif" font-size="8.4" lengthAdjust="spacing" textLength="78.6" x="129.3" y="426.5971">STMicroelectronics</text><text fill="#000000" font-family="sans-serif" font-size="8.4" lengthAdjust="spacing" textLength="36" x="129.3" y="436.3752">Software</text></g><!--entity pProg--><g id="elem_pProg"><rect fill="#F1F1F1" height="27.7781" rx="1.5" ry="1.5" style="stroke:#181818;stroke-width:0.3;" width="75" x="28.5" y="503.4"/><path d="M53.5,503.4 L53.5,506.4 L49.3,510.6 L28.5,510.6 " fill="none" style="stroke:#181818;stroke-width:0.3;"/><text fill="#000000" font-family="sans-serif" font-size="8.4" lengthAdjust="spacing" textLength="51" x="37.5" y="523.1971">Programmer</text></g><!--entity pDbg--><g id="elem_pDbg"><rect fill="#F1F1F1" height="27.7781" rx="1.5" ry="1.5" style="stroke:#181818;stroke-width:0.3;" width="93.6" x="124.8" y="503.4"/><path d="M156,503.4 L156,506.4 L151.8,510.6 L124.8,510.6 " fill="none" style="stroke:#181818;stroke-width:0.3;"/><text fill="#000000" font-family="sans-serif" font-size="8.4" lengthAdjust="spacing" textLength="69.6" x="133.8" y="523.1971">Debugger (GDB)</text></g><!--entity pTree--><g id="elem_pTree"><rect fill="#F1F1F1" height="27.7781" rx="1.5" ry="1.5" style="stroke:#181818;stroke-width:0.3;" width="79.2" x="239.4" y="503.4"/><path d="M265.8,503.4 L265.8,506.4 L261.6,510.6 L239.4,510.6 " fill="none" style="stroke:#181818;stroke-width:0.3;"/><text fill="#000000" font-family="sans-serif" font-size="8.4" lengthAdjust="spacing" textLength="55.2" x="248.4" y="523.1971">Process Tree</text></g><!--entity pLog--><g id="elem_pLog"><rect fill="#F1F1F1" height="27.7781" rx="1.5" ry="1.5" style="stroke:#181818;stroke-width:0.3;" width="39" x="339.9" y="503.4"/><path d="M352.9,503.4 L352.9,506.4 L348.7,510.6 L339.9,510.6 " fill="none" style="stroke:#181818;stroke-width:0.3;"/><text fill="#000000" font-family="sans-serif" font-size="8.4" lengthAdjust="spacing" textLength="15" x="348.9" y="523.1971">Log</text></g><!--entity pCmd--><g id="elem_pCmd"><rect fill="#F1F1F1" height="27.7781" rx="1.5" ry="1.5" style="stroke:#181818;stroke-width:0.3;" width="66.6" x="399.9" y="503.4"/><path d="M422.1,503.4 L422.1,506.4 L417.9,510.6 L399.9,510.6 " fill="none" style="stroke:#181818;stroke-width:0.3;"/><text fill="#000000" font-family="sans-serif" font-size="8.4" lengthAdjust="spacing" textLength="42.6" x="408.9" y="523.1971">Command</text></g><!--link pApp to pHwDbg--><g id="link_pApp_pHwDbg"><path d="M186.2444,81.9431 C179.1644,96.3071 171.0127,112.8345 163.0807,128.9385 " fill="none" id="pApp-pHwDbg" style="stroke:#181818;stroke-width:0.6;"/><polygon fill="#181818" points="187.836,78.714,183.2959,82.4965,186.5097,81.4049,187.6013,84.6187,187.836,78.714" style="stroke:#181818;stroke-width:0.6;"/><polygon fill="#181818" points="161.49,132.168,166.029,128.3842,162.8156,129.4767,161.723,126.2633,161.49,132.168" style="stroke:#181818;stroke-width:0.6;"/></g><!--link pApp to pSysDbg--><g id="link_pApp_pSysDbg"><path d="M217.6162,80.9655 C225.2182,87.0855 230.25,92.778 234.6,102 C235.7175,104.3685 236.5996,106.876 237.2869,109.4542 C237.4587,110.0987 236.8212,107.237 236.9694,107.8893 " fill="none" id="pApp-pSysDbg" style="stroke:#181818;stroke-width:0.6;"/><polygon fill="#181818" points="214.812,78.708,217.5133,83.9638,217.1488,80.5893,220.5233,80.2248,214.812,78.708" style="stroke:#181818;stroke-width:0.6;"/><polygon fill="#181818" points="237.7665,111.4,238.9112,105.6026,237.1022,108.4745,234.2304,106.6654,237.7665,111.4" style="stroke:#181818;stroke-width:0.6;"/></g><!--link pSwt to pStLink--><g id="link_pSwt_pStLink"><path d="M299.7458,167.5431 C278.0258,186.2751 244.2863,215.377 222.6683,234.019 " fill="none" id="pSwt-pStLink" style="stroke:#181818;stroke-width:0.6;"/><polygon fill="#181818" points="302.472,165.192,296.8153,166.9013,300.2002,167.1513,299.9502,170.5362,302.472,165.192" style="stroke:#181818;stroke-width:0.6;"/><polygon fill="#181818" points="219.942,236.37,225.5988,234.661,222.2139,234.4108,222.4641,231.026,219.942,236.37" style="stroke:#181818;stroke-width:0.6;"/><text fill="#000000" font-family="sans-serif" font-size="7.8" lengthAdjust="spacing" textLength="30.6" x="251.4" y="216.0401">USART2</text></g><!--link pHwDbg to pStLink--><g id="link_pHwDbg_pStLink"><path d="M163.9113,173.3718 C174.1893,192.6258 186.687,216.04 195.807,233.128 " fill="none" id="pHwDbg-pStLink" style="stroke:#181818;stroke-width:0.6;"/><polygon fill="#181818" points="162.216,170.196,162.6417,176.09,163.6287,172.8425,166.8762,173.8296,162.216,170.196" style="stroke:#181818;stroke-width:0.6;"/><polygon fill="#181818" points="197.502,236.304,197.0768,230.41,196.0895,233.6574,192.8421,232.6701,197.502,236.304" style="stroke:#181818;stroke-width:0.6;"/><text fill="#000000" font-family="sans-serif" font-size="7.8" lengthAdjust="spacing" textLength="18" x="187.8" y="216.0401">SWD</text></g><!--link pDrv to pStSw--><g id="link_pDrv_pStSw"><path d="M198.2374,355.1205 C192.6334,369.8445 186.1408,386.8996 179.8708,403.3696 " fill="none" id="pDrv-pStSw" style="stroke:#181818;stroke-width:0.6;"/><polygon fill="#181818" points="199.518,351.756,195.3541,355.9491,198.4509,354.5598,199.8402,357.6565,199.518,351.756" style="stroke:#181818;stroke-width:0.6;"/><polygon fill="#181818" points="178.59,406.734,182.7542,402.5412,179.6573,403.9303,178.2683,400.8335,178.59,406.734" style="stroke:#181818;stroke-width:0.6;"/></g><!--link pDrv to pGw--><g id="link_pDrv_pGw"><path d="M222.5602,354.1278 C239.3722,368.8518 261.1115,387.8925 279.9215,404.3625 " fill="none" id="pDrv-pGw" style="stroke:#181818;stroke-width:0.6;"/><polygon fill="#181818" points="219.852,351.756,222.3331,357.1192,222.1088,353.7325,225.4955,353.5083,219.852,351.756" style="stroke:#181818;stroke-width:0.6;"/><polygon fill="#181818" points="282.63,406.734,280.1483,401.3711,280.3729,404.7577,276.9863,404.9823,282.63,406.734" style="stroke:#181818;stroke-width:0.6;"/><text fill="#000000" font-family="sans-serif" font-size="7.8" lengthAdjust="spacing" textLength="33" x="269.4" y="377.4401">COM1 or</text><text fill="#000000" font-family="sans-serif" font-size="7.8" lengthAdjust="spacing" textLength="51" x="260.4" y="386.5198">/dev/ttyACM0</text></g><!--link pGw to pTree--><g id="link_pGw_pTree"><path d="M298.56,444.792 C293.814,462.234 287.7522,484.4646 283.5402,499.9266 " fill="none" id="pGw-to-pTree" style="stroke:#181818;stroke-width:0.6;"/><polygon fill="#181818" points="282.594,503.4,286.3289,498.8207,283.3825,500.5055,281.6977,497.5591,282.594,503.4" style="stroke:#181818;stroke-width:0.6;"/></g><!--link pGw to pLog--><g id="link_pGw_pLog"><path d="M315.024,444.792 C325.806,462.234 339.7959,484.8753 349.3479,500.3373 " fill="none" id="pGw-to-pLog" style="stroke:#181818;stroke-width:0.6;"/><polygon fill="#181818" points="351.24,503.4,350.4437,497.5446,349.6633,500.8477,346.3601,500.0673,351.24,503.4" style="stroke:#181818;stroke-width:0.6;"/></g><!--link pGw to pCmd--><g id="link_pGw_pCmd"><path d="M340.6639,446.4062 C356.8279,455.6162 373.032,465.582 389.4,477.6 C400.068,485.43 408.5775,492.8976 416.9475,500.7816 " fill="none" id="pGw-pCmd" style="stroke:#181818;stroke-width:0.6;"/><polygon fill="#181818" points="337.536,444.624,341.0397,449.3826,340.1426,446.1092,343.416,445.2121,337.536,444.624" style="stroke:#181818;stroke-width:0.6;"/><polygon fill="#181818" points="419.568,503.25,417.2828,497.8004,417.3842,501.193,413.9916,501.2945,419.568,503.25" style="stroke:#181818;stroke-width:0.6;"/><text fill="#000000" font-family="sans-serif" font-size="7.8" lengthAdjust="spacing" textLength="23.4" x="381" y="470.4401">TCP/IP</text></g><!--reverse link pStSw to pProg--><g id="link_pStSw_pProg"><path d="M147.2401,447.1319 C126.8461,464.5739 99.516,487.938 81.438,503.4 " fill="none" id="pStSw-backto-pProg" style="stroke:#181818;stroke-width:0.6;"/><polygon fill="#181818" points="149.976,444.792,144.3123,446.4779,147.6961,446.7419,147.4321,450.1257,149.976,444.792" style="stroke:#181818;stroke-width:0.6;"/></g><!--link pStSw to pDbg--><g id="link_pStSw_pDbg"><path d="M171.6,448.392 C171.6,465.834 171.6,484.338 171.6,499.8 " fill="none" id="pStSw-pDbg" style="stroke:#181818;stroke-width:0.6;"/><polygon fill="#181818" points="171.6,444.792,169.2,450.192,171.6,447.792,174,450.192,171.6,444.792" style="stroke:#181818;stroke-width:0.6;"/><polygon fill="#181818" points="171.6,503.4,174,498,171.6,500.4,169.2,498,171.6,503.4" style="stroke:#181818;stroke-width:0.6;"/></g><!--link pStSw to pGw--><!--link pStLink to pDrv--><g id="link_pStLink_pDrv"><path d="M204.6,267.708 C204.6,283.902 204.6,303.87 204.6,320.13 " fill="none" id="pStLink-pDrv" style="stroke:#181818;stroke-width:0.6;"/><polygon fill="#181818" points="204.6,264.108,202.2,269.508,204.6,267.108,207,269.508,204.6,264.108" style="stroke:#181818;stroke-width:0.6;"/><polygon fill="#181818" points="204.6,323.73,207,318.33,204.6,320.73,202.2,318.33,204.6,323.73" style="stroke:#181818;stroke-width:0.6;"/><text fill="#000000" font-family="sans-serif" font-size="7.8" lengthAdjust="spacing" textLength="16.8" x="205.2" y="291.0401">USB</text></g><text fill="#888888" font-family="sans-serif" font-size="6" font-weight="bold" lengthAdjust="spacing" textLength="42.6" x="180.3" y="563.5693">Processing()</text><text fill="#888888" font-family="sans-serif" font-size="6" lengthAdjust="spacing" textLength="80.4" x="224.7" y="563.5693">- Debugging STM32 Targets</text><text fill="#888888" font-family="sans-serif" font-size="6" lengthAdjust="spacing" textLength="100.2" x="192.6" y="570.5537">(C) DSP-Crowd Electronics GmbH</text><!--SRC=[NLDDQ-Cm4BthLmo-D0suwNPX3yjIIEtYB2IjMRkKfTw3OaySKrioiX8JblxtwiDsbToaDqzltdpe2hhtYhLKq0RgYg4yjGXSo3qdNKvhXDkR7uJal6avGoR1Ute9re_F7j0EsgT33ly90N3YIRhvVkTP662dT16yPTl6WkVOTHKhPzVsjGBFICcfazY4k3sKfKDJSBWjbI20IrQC6byhWQcWhDkXS9_qqh0_hBxZJhaebK2Zo41PaJ6J3bPK53qL21jU76gqAgjUvRKAsYlyyltx4Rq0hKSoP3phXh-ksFjWI-gpPcY7urC3mazuIPP_qZiTD2akmybhI3xSISI14Os74OnziGaX5DKHXSqRYgFBC9q3tJfmUfUnY4hiwSc-YNfNSrFbWcEDkHISLNcNiOJlfExOM5dIwnH2CQYHz_xoWu2Kyxgp57EyM8jn6gDHVNVZTXTGm2mA7uRPJZFvqj1xfKh1mOm-kOmrBsrWVQuUyAPHEs1ZGLEOsDKKFNIIDnaBzfGn7Akmw3XetTbfJab_ZaIzcfeNF6- -gV-KiKM1nuMKfsMmkVNCOqKmnC7lTBSszTKAAMjQAGtYnU_O8zgZ4xI6p4uf2ngT-ZWXzrFRBEIBjtrL5CZ- -MRIgfXnqGQsga9lv0CXEywbci1yxdxW-Hnyc7ugc3yFAHKbIhKRi-0QmYJs0y7x0Xw_rWQYPhiYdm00]--></g></svg>