<?xml version="1.0" encoding="us-ascii" standalone="no"?><svg xmlns="http://www.w3.org/2000/svg" xmlns:xlink="http://www.w3.org/1999/xlink" contentStyleType="text/css" height="961px" preserveAspectRatio="none" style="width:823px;height:961px;background:#FFFFFF;" version="1.1" viewBox="0 0 823 961" width="823px" zoomAndPan="magnify"><defs/><g><!--cluster pNuc--><g id="cluster_pNuc"><rect fill="none" height="449" rx="2.5" ry="2.5" style="stroke:#181818;stroke-width:1.0;" width="602" x="108" y="7"/><rect fill="none" height="10" style="stroke:#181818;stroke-width:1.0;" width="15" x="690" y="12"/><rect fill="none" height="2" style="stroke:#181818;stroke-width:1.0;" width="4" x="688" y="14"/><rect fill="none" height="2" style="stroke:#181818;stroke-width:1.0;" width="4" x="688" y="18"/><text fill="#000000" font-family="sans-serif" font-size="14" font-weight="bold" lengthAdjust="spacing" textLength="63" x="377.5" y="32.9951">NUCLEO</text></g><!--cluster STM32--><g id="cluster_STM32"><rect fill="none" height="281" rx="2.5" ry="2.5" style="stroke:#181818;stroke-width:1.0;" width="554" x="132" y="50"/><rect fill="none" height="10" style="stroke:#181818;stroke-width:1.0;" width="15" x="666" y="55"/><rect fill="none" height="2" style="stroke:#181818;stroke-width:1.0;" width="4" x="664" y="57"/><rect fill="none" height="2" style="stroke:#181818;stroke-width:1.0;" width="4" x="664" y="61"/><text fill="#000000" font-family="sans-serif" font-size="14" font-weight="bold" lengthAdjust="spacing" textLength="53" x="382.5" y="75.9951">STM32</text></g><!--cluster pSysDbg--><g id="cluster_pSysDbg"><rect fill="none" height="113" rx="2.5" ry="2.5" style="stroke:#181818;stroke-width:1.0;" width="267" x="387" y="186"/><path d="M552,186 L552,195.2969 L542,205.2969 L387,205.2969 " fill="none" style="stroke:#181818;stroke-width:1.0;"/><text fill="#000000" font-family="sans-serif" font-size="14" font-weight="bold" lengthAdjust="spacing" textLength="155" x="390" y="199.9951">SystemDebugging()</text></g><!--cluster pPc--><g id="cluster_pPc"><rect fill="none" height="420" rx="2.5" ry="2.5" style="stroke:#181818;stroke-width:1.0;" width="810" x="7" y="505"/><rect fill="none" height="10" style="stroke:#181818;stroke-width:1.0;" width="15" x="797" y="510"/><rect fill="none" height="2" style="stroke:#181818;stroke-width:1.0;" width="4" x="795" y="512"/><rect fill="none" height="2" style="stroke:#181818;stroke-width:1.0;" width="4" x="795" y="516"/><text fill="#000000" font-family="sans-serif" font-size="14" font-weight="bold" lengthAdjust="spacing" textLength="21" x="401.5" y="530.9951">PC</text></g><!--cluster pTools--><g id="cluster_pTools"><rect fill="none" height="97" rx="2.5" ry="2.5" style="stroke:#181818;stroke-width:1.0;" width="762" x="31" y="804"/><text fill="#000000" font-family="sans-serif" font-size="14" font-weight="bold" lengthAdjust="spacing" textLength="85" x="369.5" y="818.9951">Your Tools</text></g><!--entity pStLink--><g id="elem_pStLink"><rect fill="#F1F1F1" height="46.2969" rx="2.5" ry="2.5" style="stroke:#181818;stroke-width:0.5;" width="90" x="296" y="394"/><rect fill="#F1F1F1" height="10" style="stroke:#181818;stroke-width:0.5;" width="15" x="366" y="399"/><rect fill="#F1F1F1" height="2" style="stroke:#181818;stroke-width:0.5;" width="4" x="364" y="401"/><rect fill="#F1F1F1" height="2" style="stroke:#181818;stroke-width:0.5;" width="4" x="364" y="405"/><text fill="#000000" font-family="sans-serif" font-size="14" lengthAdjust="spacing" textLength="50" x="311" y="426.9951">ST-Link</text></g><!--entity pApp--><g id="elem_pApp"><rect fill="#F1F1F1" height="46.2969" rx="2.5" ry="2.5" style="stroke:#181818;stroke-width:0.5;" width="154" x="247" y="85"/><path d="M298.3333,85 L298.3333,90 L291.3333,97 L247,97 " fill="none" style="stroke:#181818;stroke-width:0.5;"/><text fill="#000000" font-family="sans-serif" font-size="14" lengthAdjust="spacing" textLength="114" x="262" y="117.9951">AppProcessing()</text></g><!--entity pHwDbg--><g id="elem_pHwDbg"><rect fill="#F1F1F1" height="62.5938" rx="2.5" ry="2.5" style="stroke:#181818;stroke-width:0.5;" width="211" x="148.5" y="220.5"/><rect fill="#F1F1F1" height="10" style="stroke:#181818;stroke-width:0.5;" width="15" x="339.5" y="225.5"/><rect fill="#F1F1F1" height="2" style="stroke:#181818;stroke-width:0.5;" width="4" x="337.5" y="227.5"/><rect fill="#F1F1F1" height="2" style="stroke:#181818;stroke-width:0.5;" width="4" x="337.5" y="231.5"/><text fill="#000000" font-family="sans-serif" font-size="14" lengthAdjust="spacing" textLength="122" x="163.5" y="253.4951">Programming and</text><text fill="#000000" font-family="sans-serif" font-size="14" lengthAdjust="spacing" textLength="171" x="163.5" y="269.792">Debug Hardware Module</text></g><!--entity pSwt--><g id="elem_pSwt"><rect fill="#F1F1F1" height="46.2969" rx="2.5" ry="2.5" style="stroke:#181818;stroke-width:0.5;" width="200" x="430" y="229"/><path d="M496.6667,229 L496.6667,234 L489.6667,241 L430,241 " fill="none" style="stroke:#181818;stroke-width:0.5;"/><text fill="#000000" font-family="sans-serif" font-size="14" lengthAdjust="spacing" textLength="160" x="445" y="261.9951">SingleWireTransfering()</text></g><!--entity pDrv--><g id="elem_pDrv"><rect fill="#F1F1F1" height="46.2969" rx="2.5" ry="2.5" style="stroke:#181818;stroke-width:0.5;" width="134" x="274" y="540"/><path d="M318.6667,540 L318.6667,545 L311.6667,552 L274,552 " fill="none" style="stroke:#181818;stroke-width:0.5;"/><text fill="#000000" font-family="sans-serif" font-size="14" lengthAdjust="spacing" textLength="94" x="289" y="572.9951">ST-Link Driver</text></g><!--entity pGw--><g id="elem_pGw"><rect fill="#F1F1F1" height="62.5938" rx="2.5" ry="2.5" style="stroke:#181818;stroke-width:0.5;" width="198" x="407" y="678"/><path d="M473,678 L473,683 L466,690 L407,690 " fill="none" style="stroke:#181818;stroke-width:0.5;"/><text fill="#000000" font-family="sans-serif" font-size="14" lengthAdjust="spacing" textLength="158" x="422" y="710.9951">Single Wire Transfering</text><text fill="#000000" font-family="sans-serif" font-size="14" lengthAdjust="spacing" textLength="59" x="422" y="727.292">Gateway</text></g><!--entity pStSw--><g id="elem_pStSw"><rect fill="#F1F1F1" height="62.5938" rx="2.5" ry="2.5" style="stroke:#181818;stroke-width:0.5;" width="171" x="200.5" y="678"/><path d="M257.5,678 L257.5,683 L250.5,690 L200.5,690 " fill="none" style="stroke:#181818;stroke-width:0.5;"/><text fill="#000000" font-family="sans-serif" font-size="14" lengthAdjust="spacing" textLength="131" x="215.5" y="710.9951">STMicroelectronics</text><text fill="#000000" font-family="sans-serif" font-size="14" lengthAdjust="spacing" textLength="60" x="215.5" y="727.292">Software</text></g><!--entity pProg--><g id="elem_pProg"><rect fill="#F1F1F1" height="46.2969" rx="2.5" ry="2.5" style="stroke:#181818;stroke-width:0.5;" width="125" x="47.5" y="839"/><path d="M89.1667,839 L89.1667,844 L82.1667,851 L47.5,851 " fill="none" style="stroke:#181818;stroke-width:0.5;"/><text fill="#000000" font-family="sans-serif" font-size="14" lengthAdjust="spacing" textLength="85" x="62.5" y="871.9951">Programmer</text></g><!--entity pDbg--><g id="elem_pDbg"><rect fill="#F1F1F1" height="46.2969" rx="2.5" ry="2.5" style="stroke:#181818;stroke-width:0.5;" width="156" x="208" y="839"/><path d="M260,839 L260,844 L253,851 L208,851 " fill="none" style="stroke:#181818;stroke-width:0.5;"/><text fill="#000000" font-family="sans-serif" font-size="14" lengthAdjust="spacing" textLength="116" x="223" y="871.9951">Debugger (GDB)</text></g><!--entity pTree--><g id="elem_pTree"><rect fill="#F1F1F1" height="46.2969" rx="2.5" ry="2.5" style="stroke:#181818;stroke-width:0.5;" width="132" x="399" y="839"/><path d="M443,839 L443,844 L436,851 L399,851 " fill="none" style="stroke:#181818;stroke-width:0.5;"/><text fill="#000000" font-family="sans-serif" font-size="14" lengthAdjust="spacing" textLength="92" x="414" y="871.9951">Process Tree</text></g><!--entity pLog--><g id="elem_pLog"><rect fill="#F1F1F1" height="46.2969" rx="2.5" ry="2.5" style="stroke:#181818;stroke-width:0.5;" width="65" x="566.5" y="839"/><path d="M588.1667,839 L588.1667,844 L581.1667,851 L566.5,851 " fill="none" style="stroke:#181818;stroke-width:0.5;"/><text fill="#000000" font-family="sans-serif" font-size="14" lengthAdjust="spacing" textLength="25" x="581.5" y="871.9951">Log</text></g><!--entity pCmd--><g id="elem_pCmd"><rect fill="#F1F1F1" height="46.2969" rx="2.5" ry="2.5" style="stroke:#181818;stroke-width:0.5;" width="111" x="666.5" y="839"/><path d="M703.5,839 L703.5,844 L696.5,851 L666.5,851 " fill="none" style="stroke:#181818;stroke-width:0.5;"/><text fill="#000000" font-family="sans-serif" font-size="14" lengthAdjust="spacing" textLength="71" x="681.5" y="871.9951">Command</text></g><!--link pApp to pHwDbg--><g id="link_pApp_pHwDbg"><path d="M310.4073,136.5718 C298.6073,160.5118 285.0211,188.0575 271.8011,214.8975 " fill="none" id="pApp-pHwDbg" style="stroke:#181818;stroke-width:1.0;"/><polygon fill="#181818" points="313.06,131.19,305.4932,137.4942,310.8494,135.6748,312.6688,141.0311,313.06,131.19" style="stroke:#181818;stroke-width:1.0;"/><polygon fill="#181818" points="269.15,220.28,276.7151,213.9737,271.3593,215.7946,269.5384,210.4388,269.15,220.28" style="stroke:#181818;stroke-width:1.0;"/></g><!--link pApp to pSysDbg--><g id="link_pApp_pSysDbg"><path d="M362.6937,134.9425 C375.3637,145.1425 383.75,154.63 391,170 C392.8625,173.9475 394.3327,178.1267 395.4782,182.4237 C395.7645,183.4979 394.7021,178.7284 394.9489,179.8156 " fill="none" id="pApp-pSysDbg" style="stroke:#181818;stroke-width:1.0;"/><polygon fill="#181818" points="358.02,131.18,362.5221,139.9396,361.9147,134.3155,367.5389,133.708,358.02,131.18" style="stroke:#181818;stroke-width:1.0;"/><polygon fill="#181818" points="396.2775,185.6666,398.1854,176.0043,395.1704,180.7908,390.3839,177.7757,396.2775,185.6666" style="stroke:#181818;stroke-width:1.0;"/></g><!--link pSwt to pStLink--><g id="link_pSwt_pStLink"><path d="M499.5764,279.2386 C463.3764,310.4586 407.1439,358.9617 371.1139,390.0317 " fill="none" id="pSwt-pStLink" style="stroke:#181818;stroke-width:1.0;"/><polygon fill="#181818" points="504.12,275.32,494.6921,278.1688,500.3336,278.5855,499.9169,284.227,504.12,275.32" style="stroke:#181818;stroke-width:1.0;"/><polygon fill="#181818" points="366.57,393.95,375.998,391.1017,370.3565,390.6847,370.7736,385.0433,366.57,393.95" style="stroke:#181818;stroke-width:1.0;"/><text fill="#000000" font-family="sans-serif" font-size="13" lengthAdjust="spacing" textLength="51" x="419" y="360.0669">USART2</text></g><!--link pHwDbg to pStLink--><g id="link_pHwDbg_pStLink"><path d="M273.1855,288.9531 C290.3155,321.0431 311.1449,360.0667 326.3449,388.5467 " fill="none" id="pHwDbg-pStLink" style="stroke:#181818;stroke-width:1.0;"/><polygon fill="#181818" points="270.36,283.66,271.0695,293.4833,272.7146,288.0709,278.127,289.7159,270.36,283.66" style="stroke:#181818;stroke-width:1.0;"/><polygon fill="#181818" points="329.17,393.84,328.4613,384.0167,326.8158,389.4289,321.4035,387.7834,329.17,393.84" style="stroke:#181818;stroke-width:1.0;"/><text fill="#000000" font-family="sans-serif" font-size="13" lengthAdjust="spacing" textLength="30" x="313" y="360.0669">SWD</text></g><!--link pDrv to pStSw--><g id="link_pDrv_pStSw"><path d="M330.3957,591.8676 C321.0557,616.4076 310.2347,644.8326 299.7847,672.2826 " fill="none" id="pDrv-pStSw" style="stroke:#181818;stroke-width:1.0;"/><polygon fill="#181818" points="332.53,586.26,325.5902,593.2485,330.7514,590.933,333.067,596.0942,332.53,586.26" style="stroke:#181818;stroke-width:1.0;"/><polygon fill="#181818" points="297.65,677.89,304.5903,670.902,299.4289,673.2172,297.1138,668.0558,297.65,677.89" style="stroke:#181818;stroke-width:1.0;"/></g><!--link pDrv to pGw--><g id="link_pDrv_pGw"><path d="M370.9337,590.2131 C398.9537,614.7531 435.1859,646.4874 466.5359,673.9374 " fill="none" id="pDrv-pGw" style="stroke:#181818;stroke-width:1.0;"/><polygon fill="#181818" points="366.42,586.26,370.5551,595.1987,370.1814,589.5542,375.8259,589.1805,366.42,586.26" style="stroke:#181818;stroke-width:1.0;"/><polygon fill="#181818" points="471.05,677.89,466.9139,668.9518,467.2882,674.5962,461.6438,674.9706,471.05,677.89" style="stroke:#181818;stroke-width:1.0;"/><text fill="#000000" font-family="sans-serif" font-size="13" lengthAdjust="spacing" textLength="55" x="449" y="629.0669">COM1 or</text><text fill="#000000" font-family="sans-serif" font-size="13" lengthAdjust="spacing" textLength="85" x="434" y="644.1997">/dev/ttyACM0</text></g><!--link pGw to pTree--><g id="link_pGw_pTree"><path d="M497.6,741.32 C489.69,770.39 479.587,807.441 472.567,833.211 " fill="none" id="pGw-to-pTree" style="stroke:#181818;stroke-width:1.0;"/><polygon fill="#181818" points="470.99,839,477.2149,831.3678,472.3042,834.1758,469.4961,829.2651,470.99,839" style="stroke:#181818;stroke-width:1.0;"/></g><!--link pGw to pLog--><g id="link_pGw_pLog"><path d="M525.04,741.32 C543.01,770.39 566.3266,808.1255 582.2466,833.8955 " fill="none" id="pGw-to-pLog" style="stroke:#181818;stroke-width:1.0;"/><polygon fill="#181818" points="585.4,839,584.0729,829.241,582.7721,834.7462,577.2669,833.4455,585.4,839" style="stroke:#181818;stroke-width:1.0;"/></g><!--link pGw to pCmd--><g id="link_pGw_pCmd"><path d="M567.7731,744.0104 C594.7131,759.3604 621.72,775.97 649,796 C666.78,809.05 680.9625,821.4961 694.9125,834.6361 " fill="none" id="pGw-pCmd" style="stroke:#181818;stroke-width:1.0;"/><polygon fill="#181818" points="562.56,741.04,568.3995,748.971,566.9043,743.5153,572.36,742.0201,562.56,741.04" style="stroke:#181818;stroke-width:1.0;"/><polygon fill="#181818" points="699.28,838.75,695.4713,829.6674,695.6404,835.3217,689.9861,835.4908,699.28,838.75" style="stroke:#181818;stroke-width:1.0;"/><text fill="#000000" font-family="sans-serif" font-size="13" lengthAdjust="spacing" textLength="39" x="635" y="784.0669">TCP/IP</text></g><!--reverse link pStSw to pProg--><g id="link_pStSw_pProg"><path d="M245.4002,745.2198 C211.4102,774.2898 165.86,813.23 135.73,839 " fill="none" id="pStSw-backto-pProg" style="stroke:#181818;stroke-width:1.0;"/><polygon fill="#181818" points="249.96,741.32,240.5205,744.1298,246.1602,744.5698,245.7202,750.2095,249.96,741.32" style="stroke:#181818;stroke-width:1.0;"/></g><!--link pStSw to pDbg--><g id="link_pStSw_pDbg"><path d="M286,747.32 C286,776.39 286,807.23 286,833 " fill="none" id="pStSw-pDbg" style="stroke:#181818;stroke-width:1.0;"/><polygon fill="#181818" points="286,741.32,282,750.32,286,746.32,290,750.32,286,741.32" style="stroke:#181818;stroke-width:1.0;"/><polygon fill="#181818" points="286,839,290,830,286,834,282,830,286,839" style="stroke:#181818;stroke-width:1.0;"/></g><!--link pStSw to pGw--><!--link pStLink to pDrv--><g id="link_pStLink_pDrv"><path d="M341,446.18 C341,473.17 341,506.45 341,533.55 " fill="none" id="pStLink-pDrv" style="stroke:#181818;stroke-width:1.0;"/><polygon fill="#181818" points="341,440.18,337,449.18,341,445.18,345,449.18,341,440.18" style="stroke:#181818;stroke-width:1.0;"/><polygon fill="#181818" points="341,539.55,345,530.55,341,534.55,337,530.55,341,539.55" style="stroke:#181818;stroke-width:1.0;"/><text fill="#000000" font-family="sans-serif" font-size="13" lengthAdjust="spacing" textLength="28" x="342" y="485.0669">USB</text></g><text fill="#888888" font-family="sans-serif" font-size="10" font-weight="bold" lengthAdjust="spacing" textLength="71" x="300.5" y="939.2822">Processing()</text><text fill="#888888" font-family="sans-serif" font-size="10" lengthAdjust="spacing" textLength="134" x="374.5" y="939.2822">- Debugging STM32 Targets</text><text fill="#888888" font-family="sans-serif" font-size="10" lengthAdjust="spacing" textLength="167" x="321" y="950.9229">(C) DSP-Crowd Electronics GmbH</text><!--SRC=[NLDTQzim57tNhxZu9Md0IzV17iOef7P91d5hPfSobZqezerZQaj6bcF2w7-lFcnNoPjqxj6vvtve1krRoHegQ0rLoL2U6mGkv96J6RGPhH1kltmd9EDrmnao2TxJIx1zVFQ0jj0yTHdy9mJ0YITfzEtEip30GIaZUAkcYGNFi6rBLinlx6i5Nf2ISokn3d7V5OL3Kt2uBvGWW4jMZ0fVIu6feAmze72VzDAmtws-uqwvA9H0hSX0MRvZ9XrigCXxAX0YddSLMfLDh_9Q1UqLVlh-_OXUWTOZ6J9UTCFVbknji2NrMJEqm_6f0U47l2Iht-cT3feKr-7aDIJlxYJYm8Z6mmZ6ljY448hoXCBc3SN9PPZEWMuTEBtRiJMLsDEpVRFkNSsep0J72ZCfE2kpTiSIVf2wOsDbIQzJ2CMWHjxxmpi1AUTLQodcUBKMupH6e_hknkqke83vEdmOPZlDv5D3xvKg1GSp-kGojhomWUsbUi3hMks0ZGLrRcApATgrajSx5XmfOpXMOT5nqBgpqvoI_X9PzsfgNl0SVLK_QiUMEPwMKfvNGNJhcSUAO8Y3t-bkRUgh5LBMj58QnCjViKUqHoTe3PcTKXOqElLnGkwdjbd85t-FPPuZ- -URIQjYnaKRsAeAlP4FX1mubse2YuNxWHSBy67wgM3-FAHK52ZLRio36mYJs0y4xtDu_5mRMDVx3Va0]--></g></svg>